<?xml version="1.0" encoding="utf-8"?>
<!-- Generator: Adobe Illustrator 22.0.0, SVG Export Plug-In . SVG Version: 6.00 Build 0)  -->
<svg version="1.1" id="Warstwa_1" xmlns="http://www.w3.org/2000/svg" xmlns:xlink="http://www.w3.org/1999/xlink" x="0px" y="0px"
	 viewBox="0 0 1366 768" style="enable-background:new 0 0 1366 768;" xml:space="preserve">
<style type="text/css">
	.st0{fill:#0B182A;}
	.st1{fill:#FFFFFF;}
	.st2{opacity:0.68;}
	.st3{fill:#23CFF7;}
	.st4{fill:#089DB5;}
	.st5{opacity:0.21;}
	.st6{opacity:0.43;}
	.st7{fill:none;}
	.st8{fill:#28D7AF;}
	.st9{fill:#23CFF7;stroke:#FFFFFF;stroke-width:0.75;stroke-linecap:round;stroke-linejoin:round;stroke-miterlimit:10;}
	.st10{fill:#23CFF7;stroke:#FFFFFF;stroke-linecap:round;stroke-linejoin:round;stroke-miterlimit:10;}
</style>
<rect x="-25.55" class="st0" width="1394.55" height="779.859"/>
<g>
	<g>
		<g>
			<path class="st0" d="M759.516,657.486l28.152-51.042h-25.545L696.639,726.42h24.857l33.176-60.15l101.393-12.675l-0.857-6.976
				C855.207,646.621,785.718,654.481,759.516,657.486z"/>
			<path class="st1" d="M787.668,606.444l-28.152,51.042c26.202-3.005,95.691-10.865,95.691-10.865l0.857,6.976l-101.393,12.675
				l-33.176,60.15h-24.857l65.484-119.976h25.546 M787.668,604.444h-25.545c-0.732,0-1.405,0.4-1.756,1.042l-65.484,119.976
				c-0.338,0.62-0.325,1.372,0.036,1.979s1.014,0.979,1.72,0.979h24.857c0.729,0,1.399-0.396,1.751-1.034l32.684-59.258
				l100.382-12.548c1.094-0.137,1.872-1.134,1.737-2.228l-0.857-6.976c-0.125-1.013-0.986-1.756-1.983-1.756
				c-0.075,0-0.151,0.004-0.227,0.013c-0.663,0.075-63.559,7.19-91.843,10.425l26.28-47.648c0.342-0.62,0.331-1.374-0.029-1.983
				C789.031,604.818,788.376,604.444,787.668,604.444L787.668,604.444z M787.668,608.444h0.005H787.668L787.668,608.444z"/>
		</g>
		<g>
			<path class="st0" d="M956.863,606.444h-25.545l28.152,51.042c-26.202-3.005-95.691-10.865-95.691-10.865l-0.857,6.976
				l101.393,12.675l33.175,60.15h24.857L956.863,606.444z"/>
			<path class="st1" d="M956.863,606.444l65.484,119.976H997.49l-33.175-60.15l-101.393-12.675l0.857-6.976
				c0,0,69.489,7.86,95.691,10.865l-28.152-51.042h25.545 M956.863,604.444h-25.545c-0.708,0-1.362,0.374-1.722,0.983
				s-0.371,1.363-0.029,1.983l26.28,47.648c-28.283-3.235-91.18-10.35-91.843-10.425c-0.076-0.009-0.152-0.013-0.227-0.013
				c-0.997,0-1.858,0.744-1.983,1.756l-0.857,6.976c-0.135,1.095,0.643,2.092,1.737,2.228l100.382,12.548l32.683,59.258
				c0.352,0.638,1.023,1.034,1.751,1.034h24.857c0.706,0,1.36-0.372,1.72-0.979s0.374-1.359,0.036-1.979l-65.484-119.976
				C958.268,604.844,957.594,604.444,956.863,604.444L956.863,604.444z"/>
		</g>
		<g>
			<polygon class="st0" points="850.895,606.444 850.064,709.679 873.207,709.679 873.207,606.444 			"/>
			<path class="st1" d="M873.207,606.444v103.235h-23.142l0.83-103.235H873.207 M873.207,604.444h-22.312
				c-1.098,0-1.991,0.886-2,1.984l-0.83,103.235c-0.004,0.533,0.205,1.046,0.58,1.425s0.887,0.591,1.42,0.591h23.142
				c1.104,0,2-0.895,2-2V606.444C875.207,605.34,874.311,604.444,873.207,604.444L873.207,604.444z"/>
		</g>
		<g class="st2">
			<g>
				<polygon class="st0" points="762.153,606.444 759.319,611.67 784.724,611.67 787.691,606.444 				"/>
				<path class="st1" d="M785.015,612.17H758.48l3.376-6.226h26.693L785.015,612.17z M760.159,611.17h24.273l2.399-4.226H762.45
					L760.159,611.17z"/>
			</g>
			<g>
				<path class="st0" d="M931.263,606.444l2.946,5.168c0.101-0.006,0.192-0.021,0.297-0.021h25.19l-2.802-5.147L931.263,606.444
					L931.263,606.444z"/>
				<path class="st1" d="M933.929,612.13l-3.526-6.186h26.788l3.348,6.146h-26.032c-0.047,0-0.09,0.005-0.134,0.01L933.929,612.13z
					 M932.123,606.944l2.364,4.146c0.006,0,0.013,0,0.019,0h24.349l-2.258-4.146H932.123z"/>
			</g>
			<g>
				<rect x="850.878" y="606.444" class="st0" width="22.328" height="5.551"/>
				<path class="st1" d="M873.707,612.495h-23.329v-6.551h23.329V612.495z M851.378,611.495h21.329v-4.551h-21.329V611.495z"/>
			</g>
		</g>
	</g>
	<g>
		<g>
			<path class="st0" d="M1249.638,593.573h-780.29V80.927c0-6.6,5.4-12,12-12h756.29c6.6,0,12,5.4,12,12V593.573z"/>
			<path class="st1" d="M1249.638,594.073h-780.29c-0.276,0-0.5-0.224-0.5-0.5V80.926c0-6.893,5.607-12.5,12.5-12.5h756.29
				c6.893,0,12.5,5.607,12.5,12.5v512.647C1250.138,593.85,1249.914,594.073,1249.638,594.073z M469.848,593.073h779.29V80.926
				c0-6.341-5.159-11.5-11.5-11.5h-756.29c-6.341,0-11.5,5.159-11.5,11.5L469.848,593.073L469.848,593.073z"/>
		</g>
		<g>
			<g>
				<path class="st3" d="M1235.4,68.927H482.723c-7.594,0-13.807,6.213-13.807,13.806v44.296h780.29V82.733
					C1249.206,75.139,1242.994,68.927,1235.4,68.927z"/>
				<path class="st1" d="M1249.206,127.729h-780.29c-0.387,0-0.7-0.313-0.7-0.7V82.733c0-7.999,6.508-14.507,14.507-14.507H1235.4
					c7.998,0,14.506,6.508,14.506,14.507v44.296C1249.906,127.416,1249.593,127.729,1249.206,127.729z M469.616,126.329h778.89
					V82.733c0-7.227-5.879-13.106-13.105-13.106H482.723c-7.227,0-13.106,5.879-13.106,13.106v43.596H469.616z"/>
			</g>
			<g>
				<rect x="481.971" y="83.884" class="st4" width="754.18" height="5.177"/>
				<rect x="481.971" y="97.115" class="st4" width="754.18" height="5.177"/>
				<rect x="481.971" y="110.346" class="st4" width="754.18" height="5.177"/>
			</g>
		</g>
		<g>
			<rect x="495.922" y="127.604" class="st0" width="725.992" height="418.797"/>
			<path class="st1" d="M1221.913,547.102H495.922c-0.387,0-0.7-0.313-0.7-0.7V127.604c0-0.387,0.313-0.7,0.7-0.7h725.991
				c0.387,0,0.7,0.313,0.7,0.7v418.797C1222.613,546.788,1222.3,547.102,1221.913,547.102z M496.622,545.701h724.591V128.304
				H496.622V545.701z"/>
		</g>
		<g>
			<rect x="495.922" y="63.749" class="st1" width="725.992" height="63.855"/>
			<path class="st1" d="M1221.913,128.304H495.922c-0.387,0-0.7-0.313-0.7-0.7V63.749c0-0.387,0.313-0.7,0.7-0.7h725.991
				c0.387,0,0.7,0.313,0.7,0.7v63.855C1222.613,127.991,1222.3,128.304,1221.913,128.304z M496.622,126.904h724.591V64.449H496.622
				V126.904z"/>
		</g>
		<g class="st5">
			<rect x="468.884" y="127.029" class="st0" width="781.218" height="17.258"/>
			<path class="st1" d="M1250.602,144.787H468.384v-18.258h782.218V144.787z M469.384,143.787h780.218v-16.258H469.384V143.787z"/>
		</g>
		<g class="st6">
			<rect x="468.884" y="571.138" class="st0" width="781.218" height="17.258"/>
			<path class="st1" d="M1250.602,588.896H468.384v-18.258h782.218V588.896z M469.384,587.896h780.218v-16.258H469.384V587.896z"/>
		</g>
		<g>
			<g>
				<g>
					<path class="st0" d="M618.833,573.249c0.526-0.465,0.821-1.1,1.236-1.662c0.005-0.007,0.034-0.039,0.068-0.076
						c-0.036-0.004-0.066-0.007-0.079-0.007c-2.32,0.002-3.243-2.036-2.866-3.801c-6.397-2.86-14.819-6.664-17.053-6.659
						l-101.47,0.165c-3.578,0.008-6.493,4.985-6.479,11.059c0.014,6.074,2.953,11.037,6.531,11.028l101.47-0.165
						c2.304-0.005,11.258-4.095,17.689-7.009C617.636,575.169,617.857,574.112,618.833,573.249z"/>
					<path class="st1" d="M498.712,583.797c-1.91,0-3.693-1.234-5.022-3.479c-1.282-2.164-1.992-5.022-1.999-8.048
						c-0.016-6.365,3.114-11.551,6.978-11.561l101.471-0.165c0.002,0,0.004,0,0.006,0c2.268,0,9.858,3.396,16.557,6.392l1.064,0.477
						l-0.084,0.396c-0.188,0.878-0.004,1.767,0.491,2.378c0.434,0.535,1.084,0.818,1.883,0.818c0.001,0,0.002,0,0.003,0l0.133,0.01
						l1.002,0.108l-0.692,0.732c-0.159,0.204-0.276,0.388-0.394,0.57c-0.264,0.413-0.537,0.84-0.943,1.198l0,0
						c-0.949,0.838-0.958,1.754-0.799,2.375l0.104,0.406l-0.963,0.437c-6.67,3.022-14.972,6.784-17.314,6.79l-101.47,0.165
						C498.719,583.797,498.715,583.797,498.712,583.797z M600.146,561.545c-0.002,0-0.003,0-0.005,0L498.67,561.71
						c-3.255,0.008-5.993,4.843-5.979,10.559c0.007,2.85,0.667,5.527,1.859,7.541c1.142,1.927,2.619,2.987,4.162,2.987
						c0.003,0,0.006,0,0.009,0l101.47-0.165c2.128-0.006,11.02-4.035,16.903-6.701l0.223-0.101
						c-0.141-1.097,0.279-2.155,1.186-2.956l0,0c0.291-0.257,0.511-0.593,0.739-0.949c-0.923-0.193-1.501-0.684-1.846-1.109
						c-0.604-0.747-0.877-1.774-0.758-2.812l-0.345-0.154C610.345,565.188,602.199,561.545,600.146,561.545z"/>
				</g>
				<g>
					<path class="st0" d="M509.445,561.185l-12.334,0.029c-3.578,0.008-6.493,4.985-6.479,11.059l0,0
						c0.014,6.074,2.953,11.037,6.531,11.028l11.737-0.028C509.046,575.913,509.352,568.546,509.445,561.185z"/>
					<path class="st1" d="M497.154,583.801c-1.91,0-3.693-1.234-5.022-3.479c-1.281-2.164-1.992-5.023-1.999-8.049
						c-0.015-6.364,3.116-11.55,6.979-11.56l12.841-0.03l-0.007,0.508c-0.054,4.187-0.177,8.442-0.297,12.559
						c-0.093,3.179-0.185,6.356-0.247,9.533l-0.01,0.489l-12.227,0.028C497.161,583.801,497.158,583.801,497.154,583.801z
						 M508.938,561.686l-11.825,0.028c-3.255,0.008-5.993,4.843-5.98,10.558c0.007,2.85,0.667,5.528,1.86,7.541
						c1.141,1.928,2.619,2.988,4.161,2.988c0.003,0,0.006,0,0.009,0l11.248-0.026c0.062-3.017,0.15-6.035,0.237-9.054
						C508.764,569.775,508.882,565.7,508.938,561.686z"/>
				</g>
				<g>
					<path class="st0" d="M622.713,573.344v-3.19c-1.579-0.641-4.034-1.759-6.797-3.018l0.023,9.834
						c2.802-1.293,5.278-2.443,6.825-3.095C622.735,573.699,622.713,573.522,622.713,573.344z"/>
					<path class="st1" d="M615.44,577.75l-0.027-11.393l0.709,0.323c2.795,1.272,5.208,2.372,6.779,3.011l0.312,0.126v3.526
						c0,0.151,0.021,0.302,0.044,0.451l0.062,0.388l-0.361,0.152c-1.386,0.584-3.518,1.568-5.985,2.708L615.44,577.75z
						 M616.417,567.914l0.02,8.275l0.117-0.055c2.279-1.052,4.272-1.973,5.668-2.573c-0.006-0.072-0.009-0.145-0.009-0.218v-2.854
						C620.771,569.891,618.746,568.975,616.417,567.914z"/>
				</g>
				<g>
					
						<rect x="512.426" y="561.095" transform="matrix(1 -0.0024 0.0024 1 -1.3715 1.338)" class="st0" width="88.749" height="22.087"/>
					<path class="st1" d="M511.964,583.766l-0.054-23.088l89.748-0.137l0.055,23.088L511.964,583.766z M512.912,561.676l0.05,21.088
						l87.749-0.133l-0.051-21.088L512.912,561.676z"/>
				</g>
				<g>
					
						<rect x="502.644" y="561.169" transform="matrix(1 -0.0024 0.0024 1 -1.3718 1.2198)" class="st0" width="9.817" height="22.087"/>
					<path class="st1" d="M502.185,583.787l-0.054-23.087l10.816-0.025l0.055,23.088L502.185,583.787z M503.133,561.698l0.05,21.087
						l8.817-0.021l-0.051-21.088L503.133,561.698z"/>
				</g>
			</g>
			<g>
				<g>
					<g>
						<path class="st0" d="M490.963,572.272L490.963,572.272c0.014,6.074,2.953,11.037,6.531,11.028l101.47-0.165
							c3.232-0.008,19.557-8.056,23.635-9.615c0.411-0.157,0.676-0.55,0.675-0.99l-0.002-0.757
							c-0.001-0.583-0.357-1.101-0.902-1.307c-4.578-1.723-20.281-9.427-23.458-9.419l-101.47,0.165
							C493.864,561.221,490.949,566.198,490.963,572.272z"/>
						<path class="st1" d="M497.484,583.95c-1.965,0-3.794-1.262-5.151-3.552c-1.295-2.188-2.013-5.073-2.021-8.124c0,0,0,0,0-0.001
							c-0.014-6.447,3.184-11.701,7.128-11.711l101.471-0.165c0.002,0,0.004,0,0.006,0c2.129,0,8.503,2.775,16.614,6.403
							c3.011,1.346,5.61,2.509,7.068,3.058c0.801,0.301,1.32,1.052,1.323,1.913l0.002,0.757c0.001,0.719-0.428,1.346-1.095,1.599
							c-1.236,0.474-3.665,1.574-6.478,2.849c-8.213,3.723-15.189,6.804-17.386,6.81l-101.472,0.165
							C497.491,583.95,497.487,583.95,497.484,583.95z M491.613,572.271c0.007,2.823,0.659,5.475,1.839,7.465
							c1.113,1.88,2.545,2.914,4.032,2.914c0.003,0,0.006,0,0.008,0l101.472-0.165c2.096-0.005,10.976-4.029,16.853-6.693
							c2.831-1.283,5.276-2.392,6.551-2.879c0.157-0.06,0.258-0.209,0.257-0.381l-0.002-0.756c-0.001-0.315-0.189-0.591-0.48-0.7
							c-1.494-0.562-4.111-1.733-7.141-3.088c-5.936-2.654-14.062-6.289-16.083-6.289c-0.002,0-0.003,0-0.004,0l-101.471,0.165
							C494.271,561.871,491.601,566.637,491.613,572.271L491.613,572.271z"/>
					</g>
					<g>
						<line class="st7" x1="512.463" y1="583.265" x2="512.411" y2="561.177"/>
						<path class="st1" d="M512.463,583.614c-0.193,0-0.35-0.156-0.35-0.349l-0.052-22.087c-0.001-0.193,0.155-0.351,0.349-0.351
							h0.001c0.193,0,0.35,0.155,0.35,0.349l0.052,22.087C512.813,583.457,512.657,583.614,512.463,583.614L512.463,583.614z"/>
					</g>
					<g>
						<line class="st7" x1="502.645" y1="582.674" x2="502.618" y2="566.723"/>
						<path class="st1" d="M502.646,583.024c-0.193,0-0.35-0.156-0.35-0.349l-0.027-15.952c-0.001-0.193,0.155-0.351,0.349-0.351
							c0.001,0,0.001,0,0.001,0c0.193,0,0.35,0.156,0.35,0.349l0.027,15.952C502.996,582.867,502.84,583.024,502.646,583.024
							L502.646,583.024z"/>
					</g>
					<g>
						<line class="st7" x1="506.326" y1="582.666" x2="506.276" y2="561.452"/>
						<path class="st1" d="M506.326,583.016c-0.193,0-0.35-0.156-0.35-0.349l-0.05-21.214c-0.001-0.193,0.155-0.351,0.349-0.351
							h0.001c0.193,0,0.35,0.156,0.35,0.349l0.05,21.214C506.677,582.858,506.521,583.016,506.326,583.016L506.326,583.016z"/>
					</g>
					<g>
						<line class="st7" x1="601.212" y1="582.787" x2="601.162" y2="561.519"/>
						<path class="st1" d="M601.212,583.137c-0.193,0-0.35-0.155-0.35-0.349l-0.051-21.268c-0.001-0.193,0.155-0.351,0.349-0.351
							h0.001c0.193,0,0.35,0.155,0.35,0.349l0.051,21.268C601.562,582.979,601.406,583.137,601.212,583.137L601.212,583.137z"/>
					</g>
					<g>
						<line class="st7" x1="616.364" y1="576.347" x2="616.343" y2="567.758"/>
						<path class="st1" d="M616.363,576.696c-0.193,0-0.35-0.155-0.35-0.349l-0.021-8.589c-0.001-0.193,0.155-0.351,0.349-0.351
							h0.001c0.193,0,0.35,0.155,0.35,0.349l0.021,8.589C616.714,576.539,616.558,576.696,616.363,576.696L616.363,576.696z"/>
					</g>
					<g>
						<line class="st7" x1="512.453" y1="578.97" x2="598.134" y2="578.842"/>
						<path class="st1" d="M512.453,579.319c-0.193,0-0.35-0.156-0.35-0.349c-0.001-0.193,0.156-0.351,0.349-0.351l85.681-0.128
							c0.001,0,0.001,0,0.001,0c0.193,0,0.35,0.156,0.35,0.349c0.001,0.193-0.156,0.351-0.349,0.351L512.453,579.319
							L512.453,579.319z"/>
					</g>
					<g>
						<line class="st7" x1="512.421" y1="565.472" x2="590.74" y2="565.362"/>
						<path class="st1" d="M512.421,565.822c-0.193,0-0.35-0.156-0.35-0.349c-0.001-0.193,0.156-0.351,0.349-0.351l78.318-0.111
							c0.001,0,0.001,0,0.001,0c0.193,0,0.35,0.156,0.35,0.349c0.001,0.193-0.156,0.351-0.349,0.351L512.421,565.822
							L512.421,565.822z"/>
					</g>
					<g>
						<line class="st7" x1="519.792" y1="569.136" x2="598.111" y2="569.025"/>
						<path class="st1" d="M519.792,569.485c-0.193,0-0.35-0.156-0.35-0.349c-0.001-0.193,0.156-0.351,0.349-0.351l78.318-0.11
							c0.001,0,0.001,0,0.001,0c0.193,0,0.35,0.156,0.35,0.349c0.001,0.193-0.156,0.351-0.349,0.351L519.792,569.485
							L519.792,569.485z"/>
					</g>
					<g>
						<line class="st7" x1="512.444" y1="573.176" x2="598.125" y2="573.048"/>
						<path class="st1" d="M512.444,573.525c-0.193,0-0.35-0.156-0.35-0.349c-0.001-0.193,0.156-0.351,0.349-0.351l85.681-0.128
							c0.001,0,0.001,0,0.001,0c0.193,0,0.35,0.156,0.35,0.349c0.001,0.193-0.156,0.351-0.349,0.351L512.444,573.525
							L512.444,573.525z"/>
					</g>
				</g>
				<g>
					<line class="st7" x1="593.194" y1="565.356" x2="595.648" y2="565.35"/>
					<path class="st1" d="M593.193,565.705c-0.193,0-0.35-0.156-0.35-0.349c-0.001-0.193,0.155-0.351,0.349-0.351l2.454-0.006h0.001
						c0.193,0,0.35,0.156,0.35,0.349c0.001,0.193-0.155,0.351-0.349,0.351L593.193,565.705L593.193,565.705z"/>
				</g>
				<g>
					<line class="st7" x1="517.338" y1="569.142" x2="512.43" y2="569.153"/>
					<path class="st1" d="M512.43,569.503c-0.193,0-0.35-0.156-0.35-0.349c-0.001-0.193,0.155-0.351,0.349-0.351l4.908-0.012h0.001
						c0.193,0,0.35,0.156,0.35,0.349c0.001,0.193-0.155,0.351-0.349,0.351L512.43,569.503L512.43,569.503z"/>
				</g>
				<g>
					<line class="st7" x1="502.602" y1="564.268" x2="502.595" y2="561.461"/>
					<path class="st1" d="M502.602,564.618c-0.193,0-0.35-0.155-0.35-0.349l-0.007-2.808c-0.001-0.193,0.155-0.351,0.349-0.351
						h0.001c0.193,0,0.35,0.155,0.35,0.349l0.007,2.808C502.952,564.461,502.796,564.618,502.602,564.618L502.602,564.618z"/>
				</g>
			</g>
		</g>
		<g>
			<g>
				<polygon class="st0" points="1151.875,562.602 1235.708,562.179 1235.776,582.386 1151.944,582.81 				"/>
				<path class="st1" d="M1151.943,583.51c-0.185,0-0.361-0.073-0.493-0.203c-0.132-0.131-0.206-0.309-0.207-0.495l-0.068-20.207
					c-0.001-0.386,0.311-0.7,0.696-0.702l83.833-0.424c0.002,0,0.003,0,0.004,0c0.185,0,0.361,0.073,0.493,0.203
					c0.132,0.131,0.206,0.309,0.207,0.495l0.068,20.208c0.001,0.386-0.311,0.7-0.696,0.702l-83.833,0.423
					C1151.945,583.51,1151.944,583.51,1151.943,583.51z M1152.577,563.299l0.063,18.808l82.434-0.416l-0.063-18.809
					L1152.577,563.299z"/>
			</g>
			<g>
				<path class="st0" d="M1238.705,563.949c0.055-0.587,0.092-1.18,0.09-1.786l-0.012-3.566c-0.027-7.845-4.953-14.24-10.948-14.209
					l-68.125,0.344c-5.995,0.03-10.878,6.474-10.852,14.319l0.012,3.566c0.002,0.606,0.043,1.199,0.102,1.785L1238.705,563.949z"/>
				<path class="st1" d="M1148.971,565.103c-0.359,0-0.661-0.272-0.696-0.631c-0.07-0.698-0.104-1.287-0.105-1.853l-0.012-3.565
					c-0.028-8.25,5.152-14.989,11.548-15.021l68.125-0.345c0.016,0,0.032,0,0.047,0c2.573,0,5.012,1.07,7.055,3.097
					c2.876,2.852,4.535,7.156,4.551,11.811l0.013,3.565c0.002,0.565-0.028,1.154-0.093,1.854c-0.034,0.358-0.334,0.633-0.693,0.635
					l-89.734,0.453C1148.973,565.103,1148.972,565.103,1148.971,565.103z M1238.705,563.949h0.01H1238.705z M1227.877,545.088
					c-0.014,0-0.026,0-0.039,0l-68.125,0.345c-5.626,0.028-10.182,6.137-10.155,13.617l0.012,3.565
					c0.001,0.342,0.015,0.695,0.043,1.084l88.446-0.446c0.025-0.39,0.037-0.745,0.036-1.088l-0.013-3.565
					c-0.014-4.222-1.561-8.268-4.136-10.821C1232.171,546.018,1230.072,545.088,1227.877,545.088z"/>
			</g>
			<g class="st6">
				<path class="st0" d="M1158.717,554.069h70.186c3.035,0,5.547-2.858,5.821-6.476c-1.889-2.012-4.296-3.219-6.906-3.206
					l-68.125,0.344c-2.557,0.013-4.908,1.2-6.766,3.158C1153.313,551.366,1155.766,554.069,1158.717,554.069z"/>
				<path class="st1" d="M1228.903,554.569h-70.187c-3.165,0-5.868-2.848-6.287-6.624l-0.025-0.23l0.16-0.168
					c2.016-2.125,4.547-3.302,7.125-3.314l68.126-0.345c0.015,0,0.028,0,0.043,0c2.628,0,5.194,1.193,7.23,3.364l0.151,0.16
					l-0.017,0.22C1234.928,551.521,1232.152,554.569,1228.903,554.569z M1153.453,548.066c0.441,3.153,2.672,5.503,5.264,5.503
					h70.187c2.669,0,4.965-2.527,5.303-5.794c-1.818-1.865-4.064-2.888-6.348-2.888c-0.013,0-0.025,0-0.038,0l-68.125,0.345
					C1157.426,545.244,1155.272,546.223,1153.453,548.066z"/>
			</g>
		</g>
		<g>
			<g>
				<path class="st3" d="M1003.741,565.162c-2.353,0.269-4.215,3.653-4.215,7.8s1.862,7.531,4.215,7.8V565.162z"/>
				<path class="st1" d="M1003.741,581.262c-0.019,0-0.038-0.001-0.057-0.003c-2.655-0.305-4.658-3.871-4.658-8.297
					c0-4.427,2.003-7.993,4.658-8.297c0.14-0.019,0.283,0.029,0.39,0.124s0.167,0.23,0.167,0.373v15.6
					c0,0.143-0.061,0.278-0.167,0.373C1003.982,581.217,1003.863,581.262,1003.741,581.262z M1003.241,565.797
					c-1.816,0.699-3.215,3.72-3.215,7.165c0,3.444,1.398,6.465,3.215,7.165V565.797z"/>
			</g>
			<g>
				<rect x="1128.055" y="567.192" class="st3" width="6.02" height="12.04"/>
				<path class="st1" d="M1134.075,579.732h-6.02c-0.276,0-0.5-0.224-0.5-0.5v-12.04c0-0.276,0.224-0.5,0.5-0.5h6.02
					c0.276,0,0.5,0.224,0.5,0.5v12.04C1134.575,579.509,1134.352,579.732,1134.075,579.732z M1128.556,578.732h5.02v-11.04h-5.02
					V578.732z"/>
			</g>
			<g>
				<rect x="1003.741" y="565.286" class="st3" width="127.324" height="15.351"/>
				<path class="st1" d="M1131.065,581.337h-127.324c-0.387,0-0.7-0.313-0.7-0.7v-15.351c0-0.387,0.313-0.7,0.7-0.7h127.324
					c0.387,0,0.7,0.313,0.7,0.7v15.351C1131.766,581.023,1131.452,581.337,1131.065,581.337z M1004.441,579.937h125.924v-13.95
					h-125.924V579.937z"/>
			</g>
			<g>
				<rect x="1003.741" y="565.286" class="st3" width="34.916" height="15.351"/>
				<path class="st1" d="M1038.657,580.986h-34.916c-0.193,0-0.35-0.156-0.35-0.35v-15.351c0-0.193,0.156-0.35,0.35-0.35h34.916
					c0.193,0,0.35,0.156,0.35,0.35v15.351C1039.007,580.83,1038.851,580.986,1038.657,580.986z M1004.091,580.287h34.217v-14.651
					h-34.217V580.287z"/>
			</g>
			<g>
				<rect x="1052.203" y="565.721" class="st3" width="6.02" height="14.503"/>
				<path class="st1" d="M1058.723,580.724h-7.02v-15.503h7.02V580.724z M1052.703,579.724h5.02v-13.503h-5.02V579.724z"/>
			</g>
			<g>
				<rect x="1117.219" y="565.716" class="st3" width="6.02" height="14.521"/>
				<path class="st1" d="M1123.739,580.737h-7.021v-15.521h7.021V580.737z M1117.719,579.737h5.021v-13.521h-5.021V579.737z"/>
			</g>
			<g>
				<ellipse class="st3" cx="1088.122" cy="572.977" rx="18.361" ry="6.02"/>
				<path class="st1" d="M1088.122,579.347c-10.492,0-18.711-2.798-18.711-6.37c0-3.571,8.219-6.369,18.711-6.369
					s18.711,2.798,18.711,6.369C1106.833,576.549,1098.614,579.347,1088.122,579.347z M1088.122,567.307
					c-9.763,0-18.012,2.597-18.012,5.67s8.249,5.671,18.012,5.671s18.012-2.598,18.012-5.671S1097.885,567.307,1088.122,567.307z"/>
			</g>
			<g class="st6">
				<rect x="1003.741" y="565.286" class="st3" width="127.324" height="6.622"/>
				<path class="st1" d="M1131.565,572.408h-128.324v-7.622h128.324V572.408z M1004.241,571.408h126.324v-5.622h-126.324
					L1004.241,571.408L1004.241,571.408z"/>
			</g>
			<g>
				<line class="st7" x1="1052.203" y1="565.721" x2="1052.203" y2="575.364"/>
				<path class="st1" d="M1052.203,575.714c-0.193,0-0.35-0.156-0.35-0.35v-9.644c0-0.193,0.156-0.35,0.35-0.35
					s0.35,0.156,0.35,0.35v9.644C1052.553,575.558,1052.396,575.714,1052.203,575.714z"/>
			</g>
			<g>
				<line class="st7" x1="1058.223" y1="566.49" x2="1058.223" y2="580.658"/>
				<path class="st1" d="M1058.223,581.008c-0.193,0-0.35-0.156-0.35-0.35v-14.169c0-0.193,0.156-0.35,0.35-0.35
					s0.35,0.156,0.35,0.35v14.169C1058.572,580.852,1058.416,581.008,1058.223,581.008z"/>
			</g>
			<g>
				<line class="st7" x1="1052.203" y1="576.745" x2="1052.203" y2="578.927"/>
				<path class="st1" d="M1052.203,579.276c-0.193,0-0.35-0.156-0.35-0.35v-2.182c0-0.193,0.156-0.35,0.35-0.35
					s0.35,0.156,0.35,0.35v2.182C1052.553,579.12,1052.396,579.276,1052.203,579.276z"/>
			</g>
			<g>
				<line class="st7" x1="1117.219" y1="565.716" x2="1117.219" y2="580.238"/>
				<path class="st1" d="M1117.219,580.587c-0.193,0-0.35-0.156-0.35-0.35v-14.521c0-0.193,0.156-0.35,0.35-0.35
					s0.35,0.156,0.35,0.35v14.521C1117.568,580.431,1117.412,580.587,1117.219,580.587z"/>
			</g>
			<g>
				<line class="st7" x1="1123.239" y1="565.716" x2="1123.239" y2="575.278"/>
				<path class="st1" d="M1123.239,575.627c-0.193,0-0.35-0.156-0.35-0.35v-9.561c0-0.193,0.156-0.35,0.35-0.35
					s0.35,0.156,0.35,0.35v9.561C1123.589,575.471,1123.433,575.627,1123.239,575.627z"/>
			</g>
			<g>
				<line class="st7" x1="1123.239" y1="577.046" x2="1123.239" y2="579.604"/>
				<path class="st1" d="M1123.239,579.954c-0.193,0-0.35-0.156-0.35-0.35v-2.559c0-0.193,0.156-0.35,0.35-0.35
					s0.35,0.156,0.35,0.35v2.559C1123.589,579.798,1123.433,579.954,1123.239,579.954z"/>
			</g>
			<g>
				<path class="st3" d="M1030.203,578.438c2.096,0,4.193,0,6.289,0"/>
				<path class="st1" d="M1036.492,578.788h-6.29c-0.193,0-0.35-0.156-0.35-0.35s0.156-0.35,0.35-0.35h6.29
					c0.193,0,0.35,0.156,0.35,0.35S1036.686,578.788,1036.492,578.788z"/>
			</g>
			<g>
				<path class="st3" d="M1022.655,578.438c0.978,0,1.957,0,2.935,0"/>
				<path class="st1" d="M1025.591,578.788h-2.936c-0.193,0-0.35-0.156-0.35-0.35s0.156-0.35,0.35-0.35h2.936
					c0.193,0,0.35,0.156,0.35,0.35S1025.784,578.788,1025.591,578.788z"/>
			</g>
			<g>
				<path class="st3" d="M1006.091,578.438c4.195,0,8.39,0,12.585,0"/>
				<path class="st1" d="M1018.676,578.788h-12.585c-0.193,0-0.35-0.156-0.35-0.35s0.156-0.35,0.35-0.35h12.585
					c0.193,0,0.35,0.156,0.35,0.35S1018.869,578.788,1018.676,578.788z"/>
			</g>
			<g>
				<line class="st7" x1="1006.091" y1="574.826" x2="1036.492" y2="574.826"/>
				<path class="st1" d="M1036.492,575.176h-30.401c-0.193,0-0.35-0.156-0.35-0.35s0.156-0.35,0.35-0.35h30.401
					c0.193,0,0.35,0.156,0.35,0.35S1036.686,575.176,1036.492,575.176z"/>
			</g>
			<g>
				<line class="st7" x1="1006.091" y1="571.214" x2="1036.492" y2="571.214"/>
				<path class="st1" d="M1036.492,571.563h-30.401c-0.193,0-0.35-0.156-0.35-0.35s0.156-0.35,0.35-0.35h30.401
					c0.193,0,0.35,0.156,0.35,0.35S1036.686,571.563,1036.492,571.563z"/>
			</g>
			<g>
				<path class="st3" d="M1031.128,567.602c1.788,0,3.576,0,5.364,0"/>
				<path class="st1" d="M1036.492,567.951h-5.364c-0.193,0-0.35-0.156-0.35-0.35s0.156-0.35,0.35-0.35h5.364
					c0.193,0,0.35,0.156,0.35,0.35S1036.686,567.951,1036.492,567.951z"/>
			</g>
			<g>
				<path class="st3" d="M1024.526,567.602c0.825,0,1.65,0,2.476,0"/>
				<path class="st1" d="M1027.002,567.951h-2.476c-0.193,0-0.35-0.156-0.35-0.35s0.156-0.35,0.35-0.35h2.476
					c0.193,0,0.35,0.156,0.35,0.35S1027.195,567.951,1027.002,567.951z"/>
			</g>
			<g>
				<path class="st3" d="M1006.091,567.602c4.822,0,9.644,0,14.465,0"/>
				<path class="st1" d="M1020.556,567.951h-14.465c-0.193,0-0.35-0.156-0.35-0.35s0.156-0.35,0.35-0.35h14.465
					c0.193,0,0.35,0.156,0.35,0.35S1020.749,567.951,1020.556,567.951z"/>
			</g>
		</g>
		<g>
			<g>
				<path class="st8" d="M855.321,565.162c-2.353,0.269-4.215,3.653-4.215,7.8s1.862,7.531,4.215,7.8V565.162z"/>
				<path class="st1" d="M855.321,581.262c-0.019,0-0.038-0.001-0.057-0.003c-2.655-0.305-4.658-3.871-4.658-8.297
					c0-4.427,2.003-7.993,4.658-8.297c0.142-0.019,0.283,0.029,0.39,0.124s0.167,0.23,0.167,0.373v15.6
					c0,0.143-0.061,0.278-0.167,0.373C855.562,581.217,855.443,581.262,855.321,581.262z M854.821,565.797
					c-1.816,0.699-3.215,3.72-3.215,7.165c0,3.444,1.398,6.465,3.215,7.164V565.797z"/>
			</g>
			<g>
				<rect x="979.635" y="567.192" class="st8" width="6.02" height="12.04"/>
				<path class="st1" d="M985.655,579.732h-6.02c-0.276,0-0.5-0.224-0.5-0.5v-12.04c0-0.276,0.224-0.5,0.5-0.5h6.02
					c0.276,0,0.5,0.224,0.5,0.5v12.04C986.155,579.509,985.932,579.732,985.655,579.732z M980.136,578.732h5.02v-11.04h-5.02
					V578.732z"/>
			</g>
			<g>
				<rect x="855.321" y="565.286" class="st8" width="127.324" height="15.351"/>
				<path class="st1" d="M982.646,581.337H855.321c-0.387,0-0.7-0.313-0.7-0.7v-15.351c0-0.387,0.313-0.7,0.7-0.7h127.324
					c0.387,0,0.7,0.313,0.7,0.7v15.351C983.346,581.023,983.032,581.337,982.646,581.337z M856.021,579.937h125.924v-13.95H856.021
					V579.937z"/>
			</g>
			<g>
				<rect x="855.322" y="565.685" class="st8" width="34.916" height="14.636"/>
				<path class="st1" d="M890.612,580.696h-35.666V565.31h35.666V580.696z M855.696,579.946h34.166V566.06h-34.166V579.946z"/>
			</g>
			<g>
				<rect x="903.783" y="566.09" class="st8" width="6.02" height="13.74"/>
				<path class="st1" d="M910.303,580.331h-7.02V565.59h7.02V580.331z M904.283,579.331h5.02V566.59h-5.02V579.331z"/>
			</g>
			<g>
				<rect x="968.799" y="565.716" class="st8" width="6.02" height="14.521"/>
				<path class="st1" d="M975.319,580.737h-7.021v-15.521h7.021V580.737z M969.299,579.737h5.021v-13.521h-5.021V579.737z"/>
			</g>
			<g>
				<ellipse class="st8" cx="939.702" cy="572.977" rx="18.361" ry="6.02"/>
				<path class="st1" d="M939.702,579.347c-10.492,0-18.711-2.798-18.711-6.37c0-3.571,8.219-6.369,18.711-6.369
					s18.711,2.798,18.711,6.369C958.413,576.549,950.194,579.347,939.702,579.347z M939.702,567.307
					c-9.763,0-18.012,2.597-18.012,5.67s8.249,5.671,18.012,5.671s18.012-2.598,18.012-5.671S949.465,567.307,939.702,567.307z"/>
			</g>
			<g class="st6">
				<rect x="855.321" y="566.073" class="st8" width="127.324" height="5.835"/>
				<path class="st1" d="M983.146,572.408H854.821v-6.835h128.324L983.146,572.408L983.146,572.408z M855.821,571.408h126.324
					v-4.835H855.821V571.408z"/>
			</g>
			<g>
				<line class="st7" x1="903.783" y1="565.721" x2="903.783" y2="575.364"/>
				<path class="st1" d="M903.783,575.714c-0.193,0-0.35-0.156-0.35-0.35v-9.644c0-0.193,0.156-0.35,0.35-0.35s0.35,0.156,0.35,0.35
					v9.644C904.133,575.558,903.977,575.714,903.783,575.714z"/>
			</g>
			<g>
				<line class="st7" x1="909.803" y1="566.073" x2="909.803" y2="580.241"/>
				<path class="st1" d="M909.803,580.591c-0.193,0-0.35-0.156-0.35-0.35v-14.168c0-0.193,0.156-0.35,0.35-0.35
					s0.35,0.156,0.35,0.35v14.168C910.152,580.435,909.996,580.591,909.803,580.591z"/>
			</g>
			<g>
				<line class="st7" x1="903.783" y1="576.745" x2="903.783" y2="578.927"/>
				<path class="st1" d="M903.783,579.276c-0.193,0-0.35-0.156-0.35-0.35v-2.182c0-0.193,0.156-0.35,0.35-0.35s0.35,0.156,0.35,0.35
					v2.182C904.133,579.12,903.977,579.276,903.783,579.276z"/>
			</g>
			<g>
				<line class="st7" x1="968.799" y1="565.716" x2="968.799" y2="580.238"/>
				<path class="st1" d="M968.799,580.587c-0.193,0-0.35-0.156-0.35-0.35v-14.521c0-0.193,0.156-0.35,0.35-0.35
					s0.35,0.156,0.35,0.35v14.521C969.148,580.431,968.992,580.587,968.799,580.587z"/>
			</g>
			<g>
				<line class="st7" x1="974.819" y1="565.716" x2="974.819" y2="575.278"/>
				<path class="st1" d="M974.819,575.627c-0.193,0-0.35-0.156-0.35-0.35v-9.561c0-0.193,0.156-0.35,0.35-0.35s0.35,0.156,0.35,0.35
					v9.561C975.169,575.471,975.013,575.627,974.819,575.627z"/>
			</g>
			<g>
				<line class="st7" x1="974.819" y1="577.046" x2="974.819" y2="579.604"/>
				<path class="st1" d="M974.819,579.954c-0.193,0-0.35-0.156-0.35-0.35v-2.559c0-0.193,0.156-0.35,0.35-0.35s0.35,0.156,0.35,0.35
					v2.559C975.169,579.798,975.013,579.954,974.819,579.954z"/>
			</g>
			<g>
				<path class="st8" d="M881.783,578.438c2.096,0,4.193,0,6.289,0"/>
				<path class="st1" d="M888.072,578.788h-6.29c-0.193,0-0.35-0.156-0.35-0.35s0.156-0.35,0.35-0.35h6.29
					c0.193,0,0.35,0.156,0.35,0.35S888.266,578.788,888.072,578.788z"/>
			</g>
			<g>
				<path class="st8" d="M874.236,578.438c0.978,0,1.957,0,2.935,0"/>
				<path class="st1" d="M877.171,578.788h-2.936c-0.193,0-0.35-0.156-0.35-0.35s0.156-0.35,0.35-0.35h2.936
					c0.193,0,0.35,0.156,0.35,0.35S877.364,578.788,877.171,578.788z"/>
			</g>
			<g>
				<path class="st8" d="M857.671,578.438c4.195,0,8.39,0,12.585,0"/>
				<path class="st1" d="M870.256,578.788h-12.585c-0.193,0-0.35-0.156-0.35-0.35s0.156-0.35,0.35-0.35h12.585
					c0.193,0,0.35,0.156,0.35,0.35S870.449,578.788,870.256,578.788z"/>
			</g>
			<g>
				<line class="st7" x1="857.671" y1="574.826" x2="888.072" y2="574.826"/>
				<path class="st1" d="M888.072,575.176h-30.401c-0.193,0-0.35-0.156-0.35-0.35s0.156-0.35,0.35-0.35h30.401
					c0.193,0,0.35,0.156,0.35,0.35S888.266,575.176,888.072,575.176z"/>
			</g>
			<g>
				<line class="st7" x1="857.671" y1="571.214" x2="888.072" y2="571.214"/>
				<path class="st1" d="M888.072,571.563h-30.401c-0.193,0-0.35-0.156-0.35-0.35s0.156-0.35,0.35-0.35h30.401
					c0.193,0,0.35,0.156,0.35,0.35S888.266,571.563,888.072,571.563z"/>
			</g>
			<g>
				<path class="st8" d="M882.708,567.602c1.788,0,3.576,0,5.364,0"/>
				<path class="st1" d="M888.072,567.951h-5.364c-0.193,0-0.35-0.156-0.35-0.35s0.156-0.35,0.35-0.35h5.364
					c0.193,0,0.35,0.156,0.35,0.35S888.266,567.951,888.072,567.951z"/>
			</g>
			<g>
				<path class="st8" d="M876.106,567.602c0.825,0,1.65,0,2.476,0"/>
				<path class="st1" d="M878.582,567.951h-2.476c-0.193,0-0.35-0.156-0.35-0.35s0.156-0.35,0.35-0.35h2.476
					c0.193,0,0.35,0.156,0.35,0.35S878.775,567.951,878.582,567.951z"/>
			</g>
			<g>
				<path class="st8" d="M857.671,567.602c4.822,0,9.644,0,14.465,0"/>
				<path class="st1" d="M872.136,567.951h-14.465c-0.193,0-0.35-0.156-0.35-0.35s0.156-0.35,0.35-0.35h14.465
					c0.193,0,0.35,0.156,0.35,0.35S872.329,567.951,872.136,567.951z"/>
			</g>
		</g>
		<g>
			<path class="st0" d="M446.161,578.616v3.412c0,11.728,6.213,21.324,13.807,21.324h799.051c7.594,0,13.807-9.596,13.807-21.324
				v-3.412H446.161z"/>
			<path class="st1" d="M1259.019,604.054H459.967c-7.998,0-14.506-9.88-14.506-22.024v-3.413c0-0.387,0.313-0.7,0.7-0.7h826.664
				c0.387,0,0.7,0.313,0.7,0.7v3.413C1273.525,594.174,1267.018,604.054,1259.019,604.054z M446.861,579.316v2.713
				c0,11.372,5.879,20.624,13.105,20.624h799.052c7.228,0,13.106-9.252,13.106-20.624v-2.713H446.861z"/>
		</g>
		<g>
			<line class="st7" x1="495.922" y1="542.566" x2="1221.913" y2="542.566"/>
			<path class="st1" d="M1221.913,542.916H495.922c-0.193,0-0.35-0.156-0.35-0.35s0.156-0.35,0.35-0.35h725.991
				c0.193,0,0.35,0.156,0.35,0.35S1222.106,542.916,1221.913,542.916z"/>
		</g>
		<g>
			<line class="st7" x1="495.922" y1="539.114" x2="1221.913" y2="539.114"/>
			<path class="st1" d="M1221.913,539.464H495.922c-0.193,0-0.35-0.156-0.35-0.35s0.156-0.35,0.35-0.35h725.991
				c0.193,0,0.35,0.156,0.35,0.35S1222.106,539.464,1221.913,539.464z"/>
		</g>
		<g>
			<line class="st7" x1="495.922" y1="535.663" x2="1221.913" y2="535.663"/>
			<path class="st1" d="M1221.913,536.013H495.922c-0.193,0-0.35-0.156-0.35-0.35s0.156-0.35,0.35-0.35h725.991
				c0.193,0,0.35,0.156,0.35,0.35S1222.106,536.013,1221.913,536.013z"/>
		</g>
	</g>
	<path class="st1" d="M1222.472,63.749v5.177h13.487h0.431c7.594,0,13.807,6.213,13.807,13.807l-0.559,495.883h23.745v3.412
		c0,11.728-6.213,21.324-13.806,21.324H460.526c-7.594,0-13.807-9.596-13.807-21.324v-3.412h22.723V127.029h0.032V82.733
		c0-7.594,6.213-13.807,13.807-13.807h0.431h12.767v-5.177H1222.472 M1222.472,60.749H496.48c-1.657,0-3,1.343-3,3v2.177h-9.767
		h-0.431c-9.267,0-16.807,7.539-16.807,16.807v43.859c-0.021,0.143-0.032,0.289-0.032,0.437v448.588H446.72c-1.657,0-3,1.343-3,3
		v3.412c0,13.412,7.539,24.324,16.807,24.324h799.051c9.267,0,16.806-10.912,16.806-24.324v-3.412c0-1.657-1.343-3-3-3h-20.742
		l0.555-492.88c0-9.27-7.54-16.81-16.807-16.81h-0.431h-10.487V63.75C1225.472,62.092,1224.129,60.749,1222.472,60.749
		L1222.472,60.749z"/>
</g>
<g>
	<path class="st1" d="M398.713,353.469c-0.29,0-0.582-0.02-0.876-0.062c-19.772-2.763-35.934-12.687-44.012-20.542h-10
		c-47.655,0-86.426-29.246-86.426-65.194s38.771-65.194,86.426-65.194s86.425,29.246,86.425,65.194v-0.001
		c0.016,19.763-11.577,38.165-31.84,50.602c0.14,8.653,2.409,18.937,5.862,26.449c0.954,2.077,0.706,4.417-0.664,6.26
		C402.424,352.575,400.638,353.469,398.713,353.469z M343.825,205.478c-46.001,0-83.426,27.9-83.426,62.194
		s37.425,62.194,83.426,62.194h10.615c0.397,0,0.779,0.158,1.061,0.439c8.191,8.192,24.587,17.594,42.751,20.132
		c1.147,0.16,2.251-0.306,2.949-1.246c0.706-0.949,0.835-2.152,0.345-3.217c-3.789-8.244-6.143-19.181-6.143-28.542
		c0-0.527,0.276-1.015,0.728-1.286c19.792-11.884,31.135-29.552,31.119-48.474c0,0,0,0,0-0.001
		C427.25,233.377,389.826,205.478,343.825,205.478z M430.25,267.671h0.01H430.25z"/>
	<g>
		<path class="st8" d="M352.72,294.076c-0.336,0-0.663-0.169-0.853-0.476c-0.289-0.47-0.144-1.086,0.327-1.376
			c2.036-1.254,2.886-4.226,2.465-5.616c-0.017-0.054-0.028-0.109-0.035-0.166l-0.647-5.175c-0.053-0.42,0.165-0.828,0.543-1.018
			c9.778-4.911,16.096-14.681,16.096-24.891c0-15.484-13.066-28.082-29.128-28.082c-15.784,0-28.626,12.576-28.626,28.034
			c0,10.551,5.975,20.107,15.594,24.938c0.378,0.19,0.596,0.598,0.543,1.018l-0.64,5.111c0.026,2.486,1.66,4.69,4.084,5.498
			c0.523,0.175,0.807,0.741,0.632,1.265c-0.175,0.523-0.734,0.81-1.265,0.632c-3.261-1.087-5.451-4.083-5.451-7.455
			c0-0.042,0.003-0.083,0.008-0.124l0.561-4.483c-9.928-5.269-16.065-15.321-16.065-26.4c0-16.561,13.738-30.034,30.626-30.034
			c17.164,0,31.128,13.495,31.128,30.082c0,10.736-6.48,21.006-16.567,26.353l0.551,4.405c0.646,2.334-0.631,6.131-3.355,7.811
			C353.08,294.028,352.898,294.076,352.72,294.076z"/>
		<g>
			<path class="st8" d="M337.952,289.95c-0.016,0-0.03,0-0.046-0.002c-0.275-0.025-0.478-0.268-0.453-0.543
				c0.629-6.968,0.115-12.543-1.663-17.367c-1.861,0.517-3.834,0.267-5.297-0.771c-1.283-0.91-2.062-2.147-2.138-3.395
				c-0.062-1.031,0.355-1.982,1.204-2.752c0.433-0.392,0.89-0.628,1.357-0.706c1.099-0.18,2.271,0.515,3.125,1.862
				c0.914,1.438,1.689,2.929,2.329,4.493c0.366-0.158,0.72-0.353,1.055-0.583c0.45-0.31,0.851-0.661,1.206-1.04
				c-0.027-0.031-0.055-0.063-0.081-0.096c-1.013-1.242-1.2-2.987-0.556-5.187c0.274-0.939,1.161-1.843,2.062-2.102
				c0.579-0.168,1.131-0.057,1.545,0.312c0.607,0.54,0.755,1.427,0.438,2.638c-0.339,1.295-0.943,2.908-2.017,4.334
				c0.97,0.648,2.409,0.939,4.109,0.794c1.371-0.113,2.686-0.761,3.66-1.793c-1.685-1.065-2.459-2.521-2.144-4.094
				c0.198-0.986,1.095-2.037,2.085-2.445c0.651-0.268,1.286-0.232,1.783,0.104c0.677,0.456,0.76,1.24,0.827,1.871
				c0.155,1.461-0.218,2.966-1.033,4.238c0.513,0.226,1.061,0.408,1.614,0.545c1.096-2.05,2.235-3.527,3.31-3.949
				c0.479-0.188,1.411-0.343,2.231,0.757c1.253,1.679,0.932,2.747,0.44,3.346c-0.938,1.147-3.204,1.387-5.435,0.985
				c-0.863,1.743-1.757,3.958-2.614,6.52c-1.817,5.43-2.968,10.945-2.736,13.114c0.029,0.275-0.169,0.521-0.444,0.55
				c-0.259,0.033-0.521-0.168-0.55-0.444c-0.354-3.314,2.251-13.688,5.332-19.967c-0.618-0.167-1.217-0.382-1.764-0.639
				c-1.157,1.323-2.78,2.157-4.481,2.298c-1.966,0.16-3.669-0.205-4.836-1.023c-0.407,0.434-0.866,0.839-1.387,1.197
				c-0.4,0.275-0.822,0.507-1.257,0.695c1.827,4.959,2.356,10.671,1.714,17.79C338.426,289.754,338.208,289.95,337.952,289.95z
				 M331.275,265.385c-0.064,0-0.13,0.005-0.196,0.016c-0.275,0.045-0.561,0.2-0.849,0.459c-0.616,0.559-0.919,1.233-0.876,1.951
				c0.056,0.944,0.682,1.906,1.717,2.639c1.175,0.832,2.807,1.039,4.351,0.642c-0.613-1.49-1.354-2.911-2.224-4.281
				C332.977,266.462,332.215,265.385,331.275,265.385z M351.956,268.469c1.84,0.274,3.571,0.055,4.178-0.685
				c0.479-0.586,0.01-1.474-0.468-2.115c-0.431-0.575-0.783-0.536-1.065-0.423C353.845,265.543,352.929,266.68,351.956,268.469z
				 M340.575,262.686c-0.069,0-0.149,0.01-0.242,0.037c-0.569,0.164-1.201,0.814-1.379,1.422c-0.536,1.83-0.425,3.25,0.329,4.22
				c0.943-1.282,1.483-2.735,1.79-3.906c0.213-0.817,0.167-1.368-0.136-1.638C340.895,262.782,340.785,262.686,340.575,262.686z
				 M348.576,262.328c-0.14,0-0.293,0.035-0.461,0.104c-0.686,0.282-1.352,1.052-1.485,1.717c-0.297,1.479,0.791,2.501,1.789,3.108
				c0.729-1.098,1.066-2.404,0.932-3.665c-0.062-0.581-0.121-0.971-0.391-1.152C348.849,262.365,348.721,262.328,348.576,262.328z"
				/>
		</g>
		<path class="st8" d="M351.811,308.472h-18.898c-1.276,0-2.315-1.039-2.315-2.316v-4.402c0-1.277,1.039-2.315,2.315-2.315h18.898
			c1.276,0,2.315,1.039,2.315,2.315v4.402C354.126,307.433,353.087,308.472,351.811,308.472z M332.912,301.439
			c-0.171,0-0.315,0.145-0.315,0.315v4.402c0,0.171,0.145,0.316,0.315,0.316h18.898c0.171,0,0.315-0.145,0.315-0.316v-4.402
			c0-0.171-0.145-0.315-0.315-0.315H332.912z"/>
		<path class="st8" d="M342.242,313.173c-4.332,0-7.726-2.332-7.726-5.31c0-0.552,0.447-1,1-1s1,0.448,1,1
			c0,1.794,2.622,3.31,5.726,3.31c1.295,0,5.872-0.758,5.872-3.164c0-0.552,0.447-1,1-1s1,0.448,1,1
			C350.114,312.297,343.905,313.173,342.242,313.173z"/>
		<path class="st8" d="M364.938,255.957c-0.276,0-0.5-0.224-0.5-0.5c0-1.978-0.279-3.935-0.831-5.816
			c-0.078-0.265,0.074-0.543,0.339-0.621c0.269-0.079,0.543,0.075,0.62,0.339c0.579,1.973,0.872,4.025,0.872,6.098
			C365.438,255.733,365.214,255.957,364.938,255.957z"/>
		<path class="st8" d="M362.599,246.277c-0.181,0-0.356-0.099-0.444-0.271c-3.078-5.986-8.932-10.212-15.656-11.304
			c-1.161-0.189-2.352-0.285-3.539-0.285c-0.276,0-0.5-0.224-0.5-0.5s0.224-0.5,0.5-0.5c1.241,0,2.485,0.1,3.699,0.297
			c7.037,1.142,13.162,5.566,16.385,11.834c0.127,0.246,0.03,0.547-0.216,0.673C362.754,246.26,362.676,246.277,362.599,246.277z"/>
		<path class="st8" d="M353.362,301.439h-22.395c-1.276,0-2.315-1.039-2.315-2.315v-5.265c0-1.277,1.039-2.316,2.315-2.316h22.395
			c1.277,0,2.316,1.039,2.316,2.316v5.265C355.679,300.4,354.64,301.439,353.362,301.439z M330.968,293.542
			c-0.171,0-0.315,0.145-0.315,0.316v5.265c0,0.171,0.145,0.315,0.315,0.315h22.395c0.172,0,0.316-0.145,0.316-0.315v-5.265
			c0-0.171-0.145-0.316-0.316-0.316H330.968z"/>
	</g>
</g>
<g>
	<path class="st1" d="M298.038,543.339c-0.352,0-0.706-0.024-1.063-0.074c-25.326-3.538-46.006-16.283-56.267-26.319h-12.983
		c-60.816,0-110.294-37.276-110.294-83.096s49.478-83.096,110.294-83.096S338.02,388.03,338.02,433.85v-0.001
		c0.021,25.233-14.834,48.733-40.792,64.59c0.141,11.19,3.073,24.551,7.552,34.292c1.157,2.519,0.856,5.356-0.806,7.592
		C302.536,542.255,300.372,543.339,298.038,543.339z M227.725,353.753c-59.162,0-107.294,35.931-107.294,80.096
		s48.132,80.096,107.294,80.096h13.6c0.397,0,0.779,0.158,1.061,0.439c9.772,9.772,30.042,22.422,55.006,25.909
		c1.616,0.226,3.187-0.431,4.176-1.762c0.997-1.342,1.18-3.042,0.486-4.548c-4.83-10.509-7.831-24.452-7.831-36.388
		c0-0.526,0.276-1.015,0.728-1.286c25.485-15.304,40.091-38.069,40.07-62.46v-0.001C335.02,389.685,286.888,353.753,227.725,353.753
		z M338.02,433.85h0.01H338.02z"/>
	<g>
		<g>
			<path class="st8" d="M253.331,421.053h-11.163v-14.324c0-7.246-7.807-12.866-14.524-12.866c-6.888,0-15.208,5.8-15.208,13.001
				v14.188h-9.702v-14.475c0-10.954,11.014-23.205,25.753-23.205c13.234,0,24.843,10.737,24.843,22.978L253.331,421.053
				L253.331,421.053z M243.107,420.114h9.285V406.35c0-11.74-11.17-22.039-23.904-22.039c-14.202,0-24.814,11.756-24.814,22.266
				v13.536h7.824v-13.249c0-7.722,8.833-13.941,16.147-13.941c7.15,0,15.463,6.03,15.463,13.805v13.386H243.107z"/>
		</g>
		<g>
			<path class="st8" d="M252.13,420.771c-0.519,0-0.939-0.421-0.939-0.939c0-1.56,0.011-3.12,0.022-4.681
				c0.022-3.061,0.045-6.226-0.022-9.327c-0.155-7.283-4.005-13.828-10.563-17.956c-7.088-4.462-16.928-4.666-25.069-0.52
				c-7.203,3.67-11.618,10.025-12.112,17.435c-0.224,3.351-0.158,6.818-0.094,10.173c0.03,1.615,0.061,3.228,0.061,4.83
				c0,0.519-0.42,0.939-0.939,0.939s-0.939-0.42-0.939-0.939c0-1.591-0.03-3.191-0.061-4.794c-0.064-3.393-0.13-6.902,0.098-10.333
				c0.539-8.087,5.326-15.006,13.134-18.984c8.717-4.44,19.284-4.205,26.923,0.604c7.101,4.47,11.271,11.579,11.44,19.505
				c0.067,3.128,0.044,6.307,0.022,9.381c-0.011,1.556-0.022,3.113-0.022,4.667C253.07,420.35,252.65,420.771,252.13,420.771z"/>
		</g>
		<path class="st8" d="M256.306,483.506h-58.007c-7.074,0-12.829-5.755-12.829-12.829v-44.134c0-3.449,2.806-6.255,6.255-6.255
			h71.154c3.449,0,6.255,2.806,6.255,6.255v44.134C269.135,477.751,263.38,483.506,256.306,483.506z M191.725,422.165
			c-2.414,0-4.377,1.963-4.377,4.377v44.134c0,6.038,4.913,10.951,10.951,10.951h58.007c6.038,0,10.951-4.913,10.951-10.951v-44.134
			c0-2.414-1.963-4.377-4.377-4.377H191.725z"/>
		<path class="st8" d="M268.196,445.794h-81.057c-0.26,0-0.47-0.21-0.47-0.47s0.21-0.47,0.47-0.47h81.057
			c0.26,0,0.47,0.21,0.47,0.47C268.665,445.584,268.455,445.794,268.196,445.794z"/>
		<path class="st8" d="M242.638,432.649h-55.499c-0.26,0-0.47-0.21-0.47-0.47s0.21-0.47,0.47-0.47h55.499
			c0.26,0,0.47,0.21,0.47,0.47C243.107,432.439,242.897,432.649,242.638,432.649z"/>
		<path class="st8" d="M258.703,432.649H248.48c-0.26,0-0.47-0.21-0.47-0.47s0.21-0.47,0.47-0.47h10.224c0.26,0,0.47,0.21,0.47,0.47
			C259.173,432.439,258.963,432.649,258.703,432.649z"/>
		<path class="st8" d="M267.466,432.649h-5.736c-0.26,0-0.47-0.21-0.47-0.47s0.21-0.47,0.47-0.47h5.736c0.26,0,0.47,0.21,0.47,0.47
			C267.935,432.439,267.725,432.649,267.466,432.649z"/>
		<path class="st8" d="M186.409,443.413c-0.094,0-0.188-0.028-0.27-0.085c-0.213-0.149-0.264-0.442-0.115-0.654l7.264-10.355
			c0.149-0.213,0.443-0.263,0.654-0.115c0.213,0.149,0.264,0.442,0.115,0.654l-7.264,10.355
			C186.702,443.343,186.556,443.413,186.409,443.413z"/>
		<path class="st8" d="M197.727,445.185c-0.094,0-0.188-0.027-0.27-0.085c-0.213-0.149-0.264-0.442-0.115-0.654l8.764-12.49
			c0.149-0.213,0.444-0.263,0.654-0.115c0.213,0.149,0.264,0.442,0.115,0.654l-8.764,12.49
			C198.02,445.115,197.875,445.185,197.727,445.185z"/>
		<path class="st8" d="M208.627,445.609c-0.094,0-0.188-0.028-0.27-0.085c-0.213-0.149-0.264-0.442-0.115-0.654l8.895-12.678
			c0.149-0.213,0.444-0.263,0.654-0.115c0.213,0.149,0.264,0.442,0.115,0.654l-8.895,12.678
			C208.92,445.54,208.775,445.609,208.627,445.609z"/>
		<path class="st8" d="M219.879,445.53c-0.094,0-0.188-0.027-0.27-0.085c-0.213-0.149-0.264-0.442-0.115-0.654l8.895-12.678
			c0.149-0.213,0.443-0.264,0.654-0.115c0.213,0.149,0.264,0.442,0.115,0.654l-8.895,12.678
			C220.173,445.461,220.027,445.53,219.879,445.53z"/>
		<path class="st8" d="M231.132,445.452c-0.094,0-0.188-0.028-0.27-0.085c-0.213-0.149-0.264-0.442-0.115-0.654l8.895-12.678
			c0.15-0.213,0.443-0.264,0.654-0.115c0.213,0.149,0.264,0.442,0.115,0.654l-8.895,12.678
			C231.426,445.382,231.28,445.452,231.132,445.452z"/>
		<path class="st8" d="M242.385,445.372c-0.094,0-0.188-0.027-0.27-0.085c-0.213-0.149-0.264-0.442-0.115-0.654l8.894-12.677
			c0.149-0.213,0.443-0.263,0.654-0.115c0.213,0.149,0.264,0.442,0.115,0.654l-8.894,12.677
			C242.678,445.302,242.532,445.372,242.385,445.372z"/>
		<path class="st8" d="M253.713,445.185c-0.094,0-0.188-0.027-0.27-0.085c-0.213-0.149-0.264-0.442-0.115-0.654l8.763-12.49
			c0.149-0.213,0.444-0.263,0.654-0.115c0.213,0.149,0.264,0.442,0.115,0.654l-8.763,12.49
			C254.007,445.115,253.861,445.185,253.713,445.185z"/>
		<path class="st8" d="M232.498,472.083h-10.444l2.886-9.196c0.054-0.147,0.136-0.368,0.124-0.432l0,0
			c-0.001,0-0.018-0.023-0.077-0.061c-1.219-0.783-1.947-2.112-1.947-3.555c0-1.329,0.603-2.557,1.656-3.368
			c1.051-0.811,2.41-1.078,3.722-0.73c1.428,0.375,2.589,1.545,2.958,2.981c0.474,1.848-0.246,3.69-1.834,4.693
			c-0.003,0.023,0.071,0.194,0.12,0.308c0.04,0.096,0.083,0.195,0.12,0.297L232.498,472.083z M223.332,471.144h7.903l-2.344-7.829
			c-0.023-0.06-0.059-0.141-0.093-0.221c-0.156-0.363-0.447-1.038,0.241-1.474c1.237-0.78,1.797-2.219,1.426-3.666
			c-0.285-1.111-1.182-2.015-2.286-2.306c-1.033-0.27-2.092-0.065-2.911,0.566c-0.82,0.632-1.29,1.589-1.29,2.625
			c0,1.122,0.567,2.155,1.516,2.765c0.742,0.479,0.492,1.158,0.326,1.608L223.332,471.144z"/>
		<path class="st8" d="M191.736,445.512c-0.094,0-0.188-0.027-0.27-0.085c-0.213-0.149-0.264-0.442-0.115-0.654l8.763-12.491
			c0.148-0.213,0.444-0.263,0.654-0.115c0.213,0.149,0.264,0.442,0.115,0.654l-8.763,12.491
			C192.03,445.442,191.884,445.512,191.736,445.512z"/>
		<path class="st8" d="M203.204,445.512c-0.094,0-0.188-0.027-0.27-0.085c-0.213-0.149-0.264-0.442-0.115-0.654l8.764-12.491
			c0.15-0.213,0.443-0.263,0.654-0.115c0.213,0.149,0.264,0.442,0.115,0.654l-8.764,12.491
			C203.497,445.442,203.352,445.512,203.204,445.512z"/>
		<path class="st8" d="M214.115,445.571c-0.094,0-0.188-0.027-0.27-0.085c-0.213-0.149-0.264-0.442-0.115-0.654l8.894-12.678
			c0.149-0.213,0.443-0.264,0.654-0.115c0.213,0.149,0.264,0.442,0.115,0.654l-8.894,12.678
			C214.408,445.501,214.262,445.571,214.115,445.571z"/>
		<path class="st8" d="M225.079,445.824c-0.094,0-0.188-0.027-0.27-0.085c-0.213-0.149-0.264-0.442-0.115-0.654l8.895-12.678
			c0.149-0.214,0.443-0.264,0.654-0.115c0.213,0.149,0.264,0.442,0.115,0.654l-8.895,12.678
			C225.373,445.754,225.227,445.824,225.079,445.824z"/>
		<path class="st8" d="M236.812,445.741c-0.094,0-0.188-0.028-0.27-0.085c-0.213-0.149-0.264-0.442-0.115-0.654l8.894-12.677
			c0.148-0.213,0.443-0.264,0.654-0.115c0.213,0.149,0.264,0.442,0.115,0.654l-8.894,12.677
			C237.105,445.672,236.959,445.741,236.812,445.741z"/>
		<path class="st8" d="M247.75,445.794c-0.094,0-0.188-0.028-0.27-0.085c-0.213-0.149-0.264-0.442-0.115-0.654l8.763-12.491
			c0.149-0.213,0.444-0.263,0.654-0.115c0.213,0.149,0.264,0.442,0.115,0.654l-8.763,12.491
			C248.043,445.724,247.897,445.794,247.75,445.794z"/>
		<path class="st8" d="M259.034,445.794c-0.094,0-0.188-0.028-0.27-0.085c-0.213-0.149-0.264-0.442-0.115-0.654l8.763-12.491
			c0.149-0.213,0.443-0.263,0.654-0.115c0.213,0.149,0.264,0.442,0.115,0.654l-8.763,12.491
			C259.328,445.724,259.182,445.794,259.034,445.794z"/>
	</g>
</g>
<g>
	<path class="st1" d="M261.856,686.301c-2.034,0-3.921-0.944-5.174-2.629c-1.448-1.948-1.711-4.421-0.702-6.616
		c3.728-8.105,6.174-19.21,6.313-28.542c-21.784-13.351-34.246-33.112-34.229-54.336c0.001-0.828,0.672-1.499,1.5-1.499h0.001
		c0.829,0.001,1.5,0.673,1.499,1.501c-0.018,20.381,12.196,39.409,33.508,52.207c0.451,0.271,0.728,0.76,0.728,1.286
		c0,10.051-2.526,21.79-6.594,30.636c-0.544,1.183-0.4,2.519,0.383,3.572c0.776,1.045,2.001,1.563,3.277,1.384
		c19.551-2.731,37.201-12.854,46.021-21.674c0.281-0.281,0.663-0.439,1.061-0.439h11.412c49.514,0,89.796-30.044,89.796-66.973
		s-40.282-66.972-89.796-66.972c-7.203,0-12.368,0.396-18.424,1.415c-0.824,0.131-1.591-0.413-1.729-1.23
		c-0.137-0.817,0.414-1.591,1.23-1.729c6.233-1.048,11.539-1.456,18.922-1.456c51.168,0,92.796,31.389,92.796,69.972
		s-41.628,69.973-92.796,69.973h-10.797c-8.661,8.438-26.028,19.114-47.281,22.084C262.472,686.279,262.162,686.301,261.856,686.301
		z"/>
	<path class="st1" d="M229.565,595.679c-0.828,0-1.5-0.672-1.5-1.5c0-24.784,16.816-47.211,44.984-59.993
		c0.756-0.341,1.645-0.008,1.986,0.746c0.342,0.755,0.008,1.644-0.746,1.986c-27.066,12.281-43.225,33.688-43.225,57.261
		C231.065,595.007,230.394,595.679,229.565,595.679z"/>
	<g>
		<g>
			<path class="st3" d="M297.283,568.236c-1.428,5.826-0.656,11.846,2.165,17.091c-0.338,0.042-0.663,0.151-0.968,0.304
				c-2.865-5.423-3.642-11.626-2.168-17.632c1.593-6.497,5.621-11.984,11.342-15.451c8.178-4.957,18.092-4.662,25.794-0.09
				c-0.358,0.006-0.716,0.013-1.074,0.014c-0.269,0.001-0.539-0.001-0.808-0.011c-0.028-0.001-0.148-0.013-0.266-0.025
				c-3.326-1.641-6.994-2.508-10.707-2.508c-4.242,0-8.536,1.122-12.422,3.477C302.679,556.731,298.813,561.999,297.283,568.236z"/>
			<path class="st3" d="M297.526,568.295c-1.416,5.774-0.649,11.74,2.154,16.936c-0.571,0.052-1.051,0.229-1.422,0.513
				c-2.892-5.476-3.675-11.74-2.188-17.805c1.609-6.562,5.678-12.104,11.455-15.605c8.381-5.08,18.566-4.695,26.391,0.118
				c-0.514,0.004-1.028,0.018-1.542,0.02c-0.269,0.001-0.539-0.001-0.808-0.011c-0.082-0.003-0.946-0.098-0.276-0.013
				c-0.204-0.026-0.404-0.037-0.599-0.034c-3.157-1.467-6.608-2.236-10.096-2.236c-4.198,0-8.448,1.11-12.293,3.44
				C302.867,556.911,299.04,562.123,297.526,568.295z"/>
			<path class="st3" d="M280.842,621.205l19.673-28.906l-2.325-1.59c-1.366-0.934-1.924-2.64-1.325-4.056
				c0.38-0.9,1.117-1.568,2.022-1.834c0.819-0.242,1.674-0.113,2.347,0.348l8.546,5.852c0.366,1.143,1.02,2.164,1.842,3.079
				l-11.235-7.693c-0.3-0.207-0.694-0.261-1.076-0.146c-0.472,0.139-0.859,0.495-1.064,0.979c-0.316,0.749,0.023,1.709,0.79,2.233
				l2.943,2.012c0.342,0.233,0.43,0.699,0.197,1.041l-19.948,29.312l0.524,7.664l8.611-3.569l-0.297-2.276
				c-0.025-0.197,0.028-0.397,0.15-0.555c0.122-0.158,0.302-0.261,0.499-0.286l2.184-0.277l-0.383-2.707
				c-0.055-0.382,0.189-0.741,0.562-0.834l2.703-0.666l-0.646-2.59c-0.1-0.398,0.141-0.804,0.538-0.907l3.055-0.798l-0.544-2.179
				c-0.054-0.213-0.011-0.439,0.117-0.618s0.328-0.292,0.547-0.311l2.701-0.229l8.351-12.194c0.112-0.164,0.286-0.276,0.481-0.313
				c0.196-0.038,0.396,0.006,0.562,0.118l3.992,2.734c0.269,0.187,0.632,0.25,1.016,0.18c0.313-0.058,0.612-0.206,0.862-0.402
				c0.062,0.517,0.237,1.017,0.526,1.448c-0.346,0.202-0.723,0.356-1.117,0.428c-0.779,0.145-1.544-0.007-2.139-0.42l-3.368-2.307
				l-8.128,11.869c-0.128,0.186-0.331,0.305-0.556,0.323l-2.178,0.185l0.51,2.044c0.1,0.398-0.141,0.804-0.538,0.907l-3.055,0.798
				l0.648,2.601c0.049,0.193,0.018,0.398-0.085,0.568c-0.104,0.171-0.27,0.294-0.463,0.342l-2.775,0.684l0.394,2.788
				c0.028,0.199-0.024,0.401-0.146,0.561c-0.122,0.159-0.303,0.264-0.502,0.289l-2.191,0.279l0.274,2.1
				c0.043,0.336-0.144,0.66-0.457,0.789l-10.106,4.189c-0.092,0.039-0.189,0.058-0.287,0.058c-0.138,0-0.274-0.038-0.396-0.112
				c-0.205-0.127-0.336-0.346-0.353-0.587l-0.613-8.965C280.703,621.511,280.748,621.344,280.842,621.205z"/>
			<path class="st3" d="M300.8,585.786h0.01H300.8z"/>
			<path class="st9" d="M304.843,594.852"/>
			<path class="st10" d="M291.717,611.644"/>
			<path class="st9" d="M297.173,606.23"/>
			<g>
				<path class="st3" d="M288.618,619.055c0.119,0,0.236-0.057,0.31-0.163l1.426-2.081c0.117-0.171,0.073-0.404-0.098-0.521
					c-0.169-0.115-0.402-0.074-0.521,0.098l-1.426,2.081c-0.117,0.171-0.073,0.404,0.098,0.521
					C288.47,619.034,288.544,619.055,288.618,619.055z"/>
				<path class="st3" d="M291.818,614.382c0.119,0,0.236-0.057,0.31-0.163l2.139-3.123c0.117-0.171,0.073-0.404-0.098-0.521
					c-0.17-0.115-0.403-0.074-0.521,0.098l-2.139,3.123c-0.117,0.171-0.073,0.404,0.098,0.521
					C291.67,614.361,291.745,614.382,291.818,614.382z"/>
				<path class="st3" d="M296.004,608.268c0.119,0,0.236-0.057,0.31-0.163l8.796-12.844c0.117-0.171,0.073-0.404-0.098-0.521
					c-0.169-0.116-0.403-0.074-0.521,0.098l-8.796,12.844c-0.117,0.171-0.073,0.404,0.098,0.521
					C295.857,608.246,295.931,608.268,296.004,608.268z"/>
			</g>
			<path class="st3" d="M317.248,598.251v3.251c0,0.069-0.056,0.125-0.125,0.125s-0.125-0.056-0.125-0.125v-3.391
				C317.082,598.159,317.164,598.205,317.248,598.251z"/>
			<path class="st3" d="M315.962,597.767v3.244c0,0.069-0.056,0.125-0.125,0.125s-0.125-0.056-0.125-0.125v-3.396
				C315.796,597.666,315.879,597.717,315.962,597.767z"/>
			<path class="st3" d="M314.677,596.798v3.314c0,0.069-0.056,0.125-0.125,0.125s-0.125-0.056-0.125-0.125v-3.487
				C314.51,596.683,314.593,596.741,314.677,596.798z"/>
			<path class="st3" d="M313.391,595.746v3.505c0,0.069-0.056,0.125-0.125,0.125s-0.125-0.056-0.125-0.125v-3.709
				C313.224,595.61,313.307,595.679,313.391,595.746z"/>
			<path class="st3" d="M310.798,595.481c0.069,0,0.125-0.056,0.125-0.125v-1.941c0-0.069-0.056-0.125-0.125-0.125
				s-0.125,0.056-0.125,0.125v1.941C310.673,595.425,310.729,595.481,310.798,595.481z"/>
			<path class="st3" d="M312.062,594.802v3.505c0,0.069-0.056,0.125-0.125,0.125s-0.125-0.056-0.125-0.125v-3.709
				C311.896,594.666,311.978,594.735,312.062,594.802z"/>
		</g>
		<path class="st3" d="M306.818,566.62c5.698-12.578,20.571-18.175,33.145-12.475c12.577,5.699,18.173,20.567,12.474,33.145
			c-2.087,4.608-5.441,8.388-9.658,10.977c-0.264-0.26-0.582-0.469-0.957-0.61c4.13-2.425,7.581-6.095,9.704-10.779
			c5.471-12.075,0.099-26.351-11.976-31.822c-3.21-1.454-6.573-2.142-9.888-2.142c-9.153,0-17.917,5.253-21.935,14.118
			c-5.307,11.713-0.412,25.493,10.907,31.305c-0.22,0.253-0.401,0.538-0.539,0.847C306.365,593.106,301.303,578.79,306.818,566.62z"
			/>
		<path class="st3" d="M336.46,567.993c0.937-0.001,1.818-0.368,2.483-1.034c0.666-0.666,1.032-1.549,1.031-2.484
			c-0.001-0.937-0.368-1.818-1.034-2.483s-1.548-1.031-2.482-1.031c-0.001,0-0.002,0-0.002,0l-12.485,0.009
			c-0.937,0.001-1.818,0.368-2.483,1.034c-0.666,0.666-1.032,1.549-1.031,2.484c0.001,0.937,0.368,1.818,1.034,2.484
			c0.666,0.664,1.547,1.03,2.481,1.03h0.005L336.46,567.993z M338.237,566.251c-0.477,0.478-1.107,0.741-1.776,0.741l-12.485,0.009
			h-0.003c-0.668,0-1.298-0.262-1.774-0.738c-0.478-0.477-0.741-1.107-0.741-1.776c-0.001-1.388,1.127-2.518,2.515-2.519
			l12.485-0.009c0.001,0,0.001,0,0.002,0c0.668,0,1.299,0.263,1.775,0.738c0.478,0.477,0.741,1.107,0.741,1.776
			S338.713,565.775,338.237,566.251z"/>
		<path class="st3" d="M306.589,566.516c5.757-12.703,20.773-18.354,33.477-12.6c12.702,5.757,18.354,20.774,12.599,33.477
			c-2.219,4.897-5.822,8.734-10.131,11.285c-0.214-0.459-0.53-0.868-0.927-1.19c4.244-2.464,7.625-6.155,9.691-10.715
			c5.414-11.949,0.099-26.076-11.851-31.49c-3.135-1.421-6.467-2.134-9.809-2.134c-2.829,0-5.664,0.512-8.392,1.538
			c-5.947,2.238-10.668,6.659-13.29,12.447c-5.169,11.407-0.554,24.791,10.27,30.694c-0.362,0.357-0.598,0.815-0.713,1.32
			C306.002,592.876,301.094,578.644,306.589,566.516z"/>
		<path class="st3" d="M315.955,583.086V581.6c0-1.371,0.331-2.733,0.959-3.956l-0.027-0.051l0.136-0.241
			c1.217-2.163,3.314-3.716,5.752-4.261c0.122-0.028,0.245-0.055,0.373-0.078c0.18-0.032,0.36-0.062,0.544-0.083
			c0.276-0.033,0.558-0.051,0.87-0.061c0.041-0.005,0.082-0.008,0.174-0.008h9.826c4.818,0,8.738,3.92,8.738,8.738v1.486
			c0,1.374-0.332,2.738-0.963,3.963l0.026,0.052l-0.132,0.233c-1.216,2.163-3.312,3.716-5.751,4.261
			c-0.122,0.028-0.245,0.055-0.373,0.078c-0.18,0.032-0.36,0.062-0.544,0.083c-0.277,0.033-0.558,0.051-0.877,0.061
			c-0.039,0.004-0.078,0.007-0.167,0.007h-9.826C319.874,591.824,315.955,587.904,315.955,583.086z M341.206,587.034l0.129-0.233
			c0.632-1.135,0.965-2.42,0.965-3.714V581.6c0-4.267-3.472-7.738-7.79-7.738l-9.849,0.002l-0.104,0.008
			c-0.252,0.006-0.502,0.021-0.748,0.052c-0.165,0.019-0.326,0.046-0.485,0.074c-0.109,0.02-0.219,0.044-0.329,0.069
			c-2.074,0.463-3.868,1.747-4.963,3.539l0.021,0.039l-0.133,0.24c-0.631,1.136-0.965,2.421-0.965,3.715v1.486
			c0,4.267,3.472,7.737,7.789,7.737l9.848-0.002l0.104-0.007c0.253-0.006,0.502-0.021,0.749-0.052
			c0.165-0.019,0.326-0.046,0.485-0.074c0.109-0.02,0.219-0.044,0.329-0.069c2.077-0.464,3.873-1.75,4.967-3.547L341.206,587.034z"
			/>
		<path class="st3" d="M329.221,645.929l-5.572-7.051c-0.104-0.132-0.161-0.295-0.161-0.463l-0.101-34.965l-2.816,0.002
			c-0.001,0-0.002,0-0.003,0c-1.653,0-3.075-1.092-3.382-2.598c-0.194-0.956,0.035-1.923,0.632-2.653
			c0.539-0.661,1.316-1.04,2.133-1.041c0.001,0,0.001,0,0.001,0h21.824c0.146,0,0.291,0.043,0.413,0.124
			c0.192,0.127,1.878,1.286,1.879,2.897c0.001,0.873-0.381,1.772-1.021,2.407c-0.564,0.561-1.237,0.85-2.002,0.86h-4.083v14.386
			c0,0.225-0.102,0.438-0.275,0.581l-1.692,1.383l1.575,1.398c0.307,0.272,0.338,0.741,0.068,1.052l-2.068,2.386l2.004,1.778
			c0.148,0.132,0.239,0.318,0.251,0.517c0.012,0.199-0.057,0.395-0.189,0.543l-1.903,2.133l1.901,2.078
			c0.135,0.147,0.206,0.344,0.195,0.544s-0.101,0.389-0.25,0.522l-1.65,1.47l1.411,1.577c0.227,0.253,0.255,0.625,0.07,0.909
			l-5.971,9.167c-0.132,0.202-0.354,0.329-0.595,0.34c-0.012,0.001-0.022,0.001-0.034,0.001
			C329.582,646.214,329.364,646.11,329.221,645.929z M333.309,634.66c-0.133-0.148-0.201-0.344-0.19-0.542
			c0.012-0.199,0.102-0.386,0.25-0.519l1.645-1.464l-1.846-2.018c-0.26-0.283-0.262-0.718-0.006-1.005l1.854-2.077l-1.996-1.771
			c-0.307-0.272-0.338-0.741-0.068-1.052l2.068-2.386l-1.679-1.49c-0.164-0.146-0.256-0.356-0.252-0.576
			c0.005-0.22,0.105-0.426,0.275-0.565l2.099-1.715V602.7c0-0.414,0.336-0.75,0.75-0.75h4.84c0.366,0.021,0.66-0.147,0.939-0.426
			c0.355-0.353,0.576-0.866,0.576-1.34c0-0.587-0.652-1.221-1.036-1.523h-21.579c-0.365,0-0.72,0.179-0.973,0.489
			c-0.311,0.38-0.429,0.893-0.323,1.406c0.161,0.797,0.983,1.396,1.911,1.396h0.001l3.565-0.003c0.001,0,0.001,0,0.001,0
			c0.413,0,0.749,0.334,0.75,0.748l0.102,35.454l4.765,6.028l5.087-7.811L333.309,634.66z"/>
		<path class="st9" d="M330.235,592.089"/>
		<path class="st3" d="M328.796,564.662c0.146,0,0.291-0.004,0.438-0.011c2.353-0.119,4.516-1.165,6.093-2.944
			c1.575-1.777,2.376-4.074,2.255-6.468c-0.25-4.943-4.38-8.76-9.253-8.524c-1.782,0.091-3.472,0.717-4.884,1.812
			c-0.164,0.126-0.193,0.362-0.066,0.525c0.127,0.164,0.362,0.194,0.525,0.066c1.291-1,2.834-1.572,4.462-1.654
			c4.461-0.228,8.238,3.281,8.466,7.812c0.111,2.196-0.622,4.304-2.066,5.934c-1.441,1.627-3.42,2.583-5.568,2.691
			c-2.037,0.106-3.995-0.569-5.556-1.889c-0.157-0.134-0.395-0.114-0.528,0.044s-0.114,0.395,0.044,0.528
			C324.749,563.933,326.738,564.662,328.796,564.662z"/>
		<path class="st9" d="M328.401,603.112"/>
		<path class="st3" d="M317.593,587.639c0.065,0,0.131-0.017,0.19-0.052c0.179-0.105,0.237-0.336,0.133-0.514
			c-0.711-1.205-1.087-2.579-1.087-3.976v-1.354c0-0.207-0.168-0.375-0.375-0.375s-0.375,0.168-0.375,0.375v1.354
			c0,1.53,0.412,3.036,1.19,4.356C317.34,587.574,317.465,587.639,317.593,587.639z"/>
		<path class="st3" d="M324.837,591.699h9.724c4.749,0,8.613-3.863,8.613-8.612V581.6c0-4.749-3.864-8.613-8.613-8.613h-9.783
			c-3.108,0-5.988,1.696-7.517,4.427c-0.102,0.182-0.037,0.41,0.144,0.511c0.182,0.1,0.411,0.036,0.511-0.144
			c1.396-2.494,4.025-4.044,6.862-4.044h9.783c4.336,0,7.863,3.527,7.863,7.863v1.486c0,4.335-3.527,7.862-7.863,7.862h-9.724
			c-0.207,0-0.375,0.168-0.375,0.375S324.63,591.699,324.837,591.699z"/>
		<path class="st10" d="M328.909,624.383"/>
		<path class="st9" d="M330.352,616.833"/>
		<g>
			<path class="st3" d="M328.738,632.315c0.207,0,0.375-0.168,0.375-0.375v-2.523c0-0.207-0.168-0.375-0.375-0.375
				s-0.375,0.168-0.375,0.375v2.523C328.363,632.147,328.531,632.315,328.738,632.315z"/>
			<path class="st3" d="M328.738,626.651c0.207,0,0.375-0.168,0.375-0.375v-3.785c0-0.207-0.168-0.375-0.375-0.375
				s-0.375,0.168-0.375,0.375v3.785C328.363,626.483,328.531,626.651,328.738,626.651z"/>
			<path class="st3" d="M328.738,619.241c0.207,0,0.375-0.168,0.375-0.375V603.3c0-0.207-0.168-0.375-0.375-0.375
				s-0.375,0.168-0.375,0.375v15.566C328.363,619.073,328.531,619.241,328.738,619.241z"/>
		</g>
		<path class="st3" d="M320.559,564.75c-0.001-0.902,0.353-1.754,0.994-2.396c0.643-0.643,1.492-0.996,2.396-0.997l12.485-0.009
			c0.001,0,0.001,0,0.001,0c0.902,0,1.753,0.354,2.396,0.994c0.643,0.643,0.996,1.492,0.997,2.396
			c0.001,0.902-0.353,1.754-0.994,2.396c-0.643,0.643-1.493,0.996-2.396,0.997l-12.484,0.009l0,0c0,0-0.001,0-0.002,0
			C322.082,568.14,320.56,566.62,320.559,564.75z M336.438,567.381c1.456-0.001,2.641-1.187,2.64-2.644
			c0-0.702-0.276-1.364-0.777-1.864s-1.163-0.775-1.864-0.775c0,0-0.001,0-0.002,0l-12.485,0.009c-0.702,0-1.364,0.276-1.864,0.777
			c-0.501,0.501-0.775,1.164-0.775,1.866c0.001,1.456,1.187,2.64,2.643,2.64c0.001,0,0.001,0,0.002,0L336.438,567.381z"/>
	</g>
</g>
<g>
	<g>
		<g>
			<path class="st1" d="M75.016,370.278c-1.924,0-3.709-0.894-4.895-2.487c-1.371-1.843-1.619-4.183-0.665-6.26
				c3.453-7.512,5.724-17.795,5.863-26.449c-20.264-12.438-31.856-30.84-31.84-50.602c0-35.947,38.77-65.192,86.425-65.192
				s86.425,29.246,86.425,65.194s-38.77,65.193-86.425,65.193h-10c-8.08,7.855-24.241,17.78-44.011,20.542
				C75.599,370.258,75.306,370.278,75.016,370.278z M129.904,222.287c-46.001,0-83.425,27.9-83.425,62.194v0.001
				c-0.017,18.92,11.326,36.588,31.119,48.473c0.451,0.271,0.728,0.759,0.728,1.286c0,9.361-2.354,20.298-6.144,28.542
				c-0.489,1.065-0.36,2.268,0.346,3.217c0.699,0.94,1.803,1.404,2.949,1.246c18.162-2.538,34.558-11.939,42.751-20.132
				c0.281-0.281,0.663-0.439,1.061-0.439h10.615c46.001,0,83.425-27.9,83.425-62.193
				C213.329,250.187,175.905,222.287,129.904,222.287z M44.979,284.481h0.01H44.979z"/>
		</g>
		<path class="st3" d="M153.297,326.058h-45.729c-5.554,0-10.073-4.425-10.073-9.865v-63.178c0-5.44,4.52-9.866,10.073-9.866h1.331
			c0.497,0,0.9,0.403,0.9,0.9s-0.403,0.9-0.9,0.9h-1.331c-4.562,0-8.272,3.619-8.272,8.066v63.178c0,4.447,3.711,8.065,8.272,8.065
			h45.729c4.562,0,8.272-3.618,8.272-8.065v-50.977l-20.735-20.267h-19.33c-0.497,0-0.9-0.403-0.9-0.9s0.403-0.9,0.9-0.9h19.697
			c0.235,0,0.461,0.092,0.629,0.256l21.269,20.788c0.174,0.169,0.271,0.401,0.271,0.644v51.355
			C163.37,321.632,158.851,326.058,153.297,326.058z"/>
		<path class="st3" d="M161.726,265.471H149.86c-5.127,0-9.299-4.32-9.299-9.63v-11.279c0-0.207,0.168-0.375,0.375-0.375
			s0.375,0.168,0.375,0.375v11.279c0,4.896,3.835,8.88,8.549,8.88h11.865c0.207,0,0.375,0.168,0.375,0.375
			S161.933,265.471,161.726,265.471z"/>
		<path class="st3" d="M156.692,283.952c-0.207,0-0.375-0.168-0.375-0.375v-3.08c0-0.207,0.168-0.375,0.375-0.375
			s0.375,0.168,0.375,0.375v3.08C157.067,283.784,156.899,283.952,156.692,283.952z"/>
		<path class="st3" d="M156.692,292.165c-0.207,0-0.375-0.168-0.375-0.375v-6.16c0-0.207,0.168-0.375,0.375-0.375
			s0.375,0.168,0.375,0.375v6.16C157.067,291.997,156.899,292.165,156.692,292.165z"/>
		<path class="st3" d="M149.174,319.886H111.69c-4.353,0-7.894-3.479-7.894-7.757v-54.068c0-2.573,1.305-4.976,3.489-6.429
			c0.174-0.113,0.405-0.068,0.521,0.105c0.114,0.172,0.067,0.405-0.104,0.52c-1.976,1.313-3.155,3.482-3.155,5.804v54.068
			c0,3.864,3.204,7.007,7.144,7.007h37.483c3.939,0,7.144-3.143,7.144-7.007v-18.286c0-0.207,0.168-0.375,0.375-0.375
			s0.375,0.168,0.375,0.375v18.286C157.067,316.407,153.526,319.886,149.174,319.886z"/>
		<path class="st3" d="M115.853,263.446c-3.367,0-5.719-2.277-5.719-5.537l-0.033-12.431c0-2.508,1.666-4.128,4.244-4.128
			c2.534,0,4.108,1.568,4.108,4.093v10.477c0,1.709-0.908,2.65-2.558,2.65c-1.728,0-2.679-0.907-2.679-2.554l0.037-10.414h2.048
			l-0.014,10.722c0.121,0.214,0.371,0.314,0.581,0.314c0.108-0.028,0.361-0.334,0.534-0.649v-10.632
			c0-1.039-0.954-2.021-1.963-2.021c-0.986,0-2.259,0.995-2.259,2.051l-0.031,12.555c0,2.012,2.009,3.573,3.737,3.573
			c1.689,0,3.571-1.455,3.571-3.542l0.099-12.371h2.047v12.467C121.604,261.286,119.293,263.446,115.853,263.446z M114.15,242.354
			c-1.914,0.073-3.05,1.229-3.05,3.123l0.033,12.431c0,2.306,1.367,3.969,3.509,4.417c-1.827-0.552-3.492-2.248-3.492-4.384
			l0.031-12.555C111.182,243.807,112.741,242.515,114.15,242.354z M120.55,246.603l-0.091,11.375c0,1.966-1.415,3.738-3.254,4.33
			c2.104-0.459,3.399-2.021,3.399-4.237v-11.467L120.55,246.603L120.55,246.603z M114.952,242.389
			c1.336,0.271,2.451,1.564,2.451,2.969v10.869l-0.051,0.104c-0.122,0.25-0.51,0.962-1.074,1.216
			c0.829-0.107,1.175-0.601,1.175-1.627v-10.477C117.453,243.689,116.551,242.602,114.952,242.389z M114.25,246.603l-0.033,9.416
			c0,0.796,0.269,1.258,0.875,1.449c-0.227-0.104-0.424-0.252-0.564-0.43c-0.202-0.256-0.281-0.566-0.226-0.879v-9.555h-0.052
			V246.603z"/>
		<path class="st3" d="M133.583,284.979h-24.159c-0.207,0-0.375-0.168-0.375-0.375s0.168-0.375,0.375-0.375h24.159
			c0.207,0,0.375,0.168,0.375,0.375S133.79,284.979,133.583,284.979z"/>
		<g>
			<path class="st3" d="M124.13,292.165h-14.706c-0.207,0-0.375-0.168-0.375-0.375s0.168-0.375,0.375-0.375h14.706
				c0.207,0,0.375,0.168,0.375,0.375S124.337,292.165,124.13,292.165z"/>
			<path class="st3" d="M151.44,292.165h-25.21c-0.207,0-0.375-0.168-0.375-0.375s0.168-0.375,0.375-0.375h25.21
				c0.207,0,0.375,0.168,0.375,0.375S151.647,292.165,151.44,292.165z"/>
		</g>
		<g>
			<path class="st3" d="M141.986,299.352h-11.555c-0.207,0-0.375-0.168-0.375-0.375s0.168-0.375,0.375-0.375h11.555
				c0.207,0,0.375,0.168,0.375,0.375S142.193,299.352,141.986,299.352z"/>
			<path class="st3" d="M152.491,299.352h-8.403c-0.207,0-0.375-0.168-0.375-0.375s0.168-0.375,0.375-0.375h8.403
				c0.207,0,0.375,0.168,0.375,0.375S152.698,299.352,152.491,299.352z"/>
			<path class="st3" d="M128.331,299.352h-18.907c-0.207,0-0.375-0.168-0.375-0.375s0.168-0.375,0.375-0.375h18.907
				c0.207,0,0.375,0.168,0.375,0.375S128.538,299.352,128.331,299.352z"/>
		</g>
	</g>
	<g>
		<path class="st3" d="M151.44,306.539h-13.655c-0.207,0-0.375-0.168-0.375-0.375s0.168-0.375,0.375-0.375h13.655
			c0.207,0,0.375,0.168,0.375,0.375S151.647,306.539,151.44,306.539z"/>
		<path class="st3" d="M134.634,306.539h-25.21c-0.207,0-0.375-0.168-0.375-0.375s0.168-0.375,0.375-0.375h25.21
			c0.207,0,0.375,0.168,0.375,0.375S134.841,306.539,134.634,306.539z"/>
	</g>
</g>
<g>
	<rect x="495.131" y="127.604" class="st1" width="726.783" height="401.979"/>
</g>
<rect x="470.475" y="128.029" class="st0" width="769.32" height="2.929"/>
<g>
	<path class="st8" d="M88.22,85.832c0.336,0.042,0.588,0.21,1.008,0.294c0.799,0.21,2.311,0.294,3.025,0.588
		c0.798,0.336,1.386,1.092,2.016,1.722c0.084,0.084,0.336,0.042,0.42,0.168c0.126,0.084,0.421,0.504,0.589,0.714
		c0.126,0.168,0.168,0.504,0.294,0.714s0.378,0.252,0.42,0.42c0.294,0.672,0.294,1.554,0.42,2.31
		c0.168,0.966,0.378,2.101,0.168,3.193c-0.084,0.294-0.168,0.714-0.294,1.428c-0.042,0.252-0.042,0.672-0.126,0.882
		c-0.126,0.294-0.546,0.546-0.756,0.84c-0.21,0.336-0.21,0.798-0.42,1.008c-0.126,0.168-0.547,0.336-0.883,0.588
		c-0.294,0.294-0.504,0.546-0.84,0.882c-0.21,0.168-1.345,0.882-1.597,1.008c-0.546,0.252-1.218,0.252-1.89,0.42
		c-0.337,0.084-0.505,0.21-0.841,0.294c-0.882,0.21-1.596,0.42-2.772,0.588c-0.63,0.084-1.806-0.042-2.016,0.126
		c-0.379,0.336-0.379,2.142-0.421,3.318c-0.084,2.814,0,4.075-0.126,7.099c-0.042,0.798-0.084,3.361-0.168,3.445
		c0,0.042-1.05,0.252-1.596,0.294c-0.505,0.042-1.177-0.126-1.723-0.168c-1.429-0.042-3.444,0.21-3.906-0.42
		c-0.21-0.294,0-1.638,0-2.73c0.168-5.251-0.084-9.62,0.168-14.451c0.042-0.966,0.126-1.848,0.126-2.73c0-0.42,0-0.756,0-1.134
		c0-1.974,0.294-3.739,0.462-5.923c0.042-1.134,0.042-1.975,0.252-2.898c0.084-0.294,0.126-0.714,0.294-0.882
		c0.672-0.672,4.495-0.714,5.923-0.84C84.439,85.874,86.876,85.706,88.22,85.832z M83.851,93.351
		c-0.042,0.546-0.168,1.26-0.126,1.722c0,0.294,0.21,0.63,0.294,1.008c0.127,0.588-0.042,1.05,0.127,1.176
		c0.168,0.084,1.554,0.042,2.184,0c1.219-0.126,1.975-0.504,2.73-1.008c0.673-0.462,1.093-0.798,1.177-1.47
		c0.084-0.882-0.378-1.596-0.756-2.017c-0.715-0.924-0.673-0.714-2.311-0.84c-0.883-0.126-1.765-0.126-2.143,0
		c-0.21,0.042-0.798-0.084-1.009,0.126C83.893,92.175,83.893,93.015,83.851,93.351z"/>
	<path class="st3" d="M115.646,109.608c0.841-0.042,1.975-0.378,2.437-0.126c0.378,0.21,0.63,1.26,0.714,2.142
		c0.043,0.336-0.126,0.378-0.126,0.588c0,0.294,0.253,0.714,0.126,1.008c-0.042,0.168-0.126,0.336-0.126,0.42
		c0.042,0.63,0.295,0.882,0.295,1.302c0,0.378-0.211,0.21-0.295,0.882c0,0.168,0.337,0.546,0,0.882
		c-0.504,0.462-1.554,0.21-2.73,0.294c-1.302,0.042-2.521,0.168-3.906,0.252c-2.521,0.21-4.915,0.294-7.813,0.462
		c-1.092,0.042-3.276,0.462-3.864,0.126c-0.084-0.042-0.336-0.588-0.463-1.008c-0.252-0.924-0.168-2.058-0.546-3.024
		c-0.21-0.504,0-0.63,0-1.428c-0.084-1.218-0.168-1.176,0.546-2.185c0.127-0.168,0.295-0.42,0.463-0.588
		c0.168-0.21,0.252-0.378,0.42-0.546c0.63-0.756,1.47-1.428,2.017-2.058c0.084-0.084,0.042-0.294,0.126-0.42
		c0.168-0.168,0.504-0.42,0.756-0.714c0.546-0.714,1.092-1.512,1.723-2.311c0.252-0.336,0.63-0.672,0.882-1.008
		c0.252-0.378,0.42-0.882,0.714-1.302c0.252-0.42,0.588-0.756,0.84-1.134c0.547-0.84,1.009-1.765,1.471-2.604
		c0.42-0.84,0.882-1.807,1.302-2.772c0.547-1.344,1.429-3.151,0.253-4.159c-0.126-0.126-0.379-0.042-0.547-0.168
		c-0.126-0.084-0.084-0.252-0.294-0.294c-1.596-0.294-2.562,0.756-3.024,1.176c-0.252,0.21-0.714,0.63-1.008,1.008
		c-0.084,0.084-0.084,0.294-0.168,0.42s-0.336,0.168-0.42,0.294c-0.253,0.336-0.379,0.882-0.883,1.008
		c-0.84,0.21-1.176-0.252-1.596-0.42c-0.925-0.378-1.849-0.756-2.73-1.302c-0.126-0.084-0.295-0.042-0.421-0.126
		c-0.126-0.126-0.504-0.336-0.588-0.882c-0.084-0.504,0.378-1.05,0.883-1.89c0.378-0.63,0.798-1.47,1.008-1.722
		c0.336-0.378,1.008-0.756,1.596-1.302c0.211-0.21,0.463-0.504,0.715-0.714c0.378-0.336,0.672-0.588,1.134-0.882
		c0.672-0.378,1.765-0.924,2.772-1.302c0.588-0.21,0.672-0.168,1.555-0.294c1.344-0.126,3.234-0.168,4.074,0
		c0.042,0.042,0.21,0.294,0.252,0.294c0.547,0.168,1.051,0.294,1.597,0.588c0.756,0.378,1.597,1.26,2.185,2.184
		c0.756,1.176,1.47,2.983,1.302,5.335c-0.042,0.42-0.21,0.84-0.294,1.302c-0.294,1.176-0.588,2.437-1.008,3.613
		c-0.588,1.47-1.261,2.856-2.017,4.033c-0.168,0.252-0.21,0.42-0.462,0.714c-0.672,0.882-1.429,1.974-2.143,3.024
		c-1.302,1.848-2.898,3.907-4.2,6.049C110.647,110.196,112.832,109.86,115.646,109.608z"/>
	<path class="st8" d="M134.546,85.832c0.336,0.042,0.588,0.21,1.008,0.294c0.799,0.21,2.311,0.294,3.025,0.588
		c0.798,0.336,1.386,1.092,2.016,1.722c0.084,0.084,0.336,0.042,0.42,0.168c0.126,0.084,0.421,0.504,0.589,0.714
		c0.126,0.168,0.168,0.504,0.294,0.714s0.378,0.252,0.42,0.42c0.294,0.672,0.294,1.554,0.42,2.31
		c0.168,0.966,0.378,2.101,0.168,3.193c-0.084,0.294-0.168,0.714-0.294,1.428c-0.042,0.252-0.042,0.672-0.126,0.882
		c-0.126,0.294-0.546,0.546-0.756,0.84c-0.21,0.336-0.21,0.798-0.42,1.008c-0.126,0.168-0.547,0.336-0.883,0.588
		c-0.294,0.294-0.504,0.546-0.84,0.882c-0.21,0.168-1.345,0.882-1.597,1.008c-0.546,0.252-1.218,0.252-1.89,0.42
		c-0.337,0.084-0.505,0.21-0.841,0.294c-0.882,0.21-1.596,0.42-2.772,0.588c-0.63,0.084-1.806-0.042-2.016,0.126
		c-0.379,0.336-0.379,2.142-0.421,3.318c-0.084,2.814,0,4.075-0.126,7.099c-0.042,0.798-0.084,3.361-0.168,3.445
		c0,0.042-1.05,0.252-1.596,0.294c-0.505,0.042-1.177-0.126-1.723-0.168c-1.429-0.042-3.444,0.21-3.906-0.42
		c-0.21-0.294,0-1.638,0-2.73c0.168-5.251-0.084-9.62,0.168-14.451c0.042-0.966,0.126-1.848,0.126-2.73c0-0.42,0-0.756,0-1.134
		c0-1.974,0.294-3.739,0.462-5.923c0.042-1.134,0.042-1.975,0.252-2.898c0.084-0.294,0.126-0.714,0.294-0.882
		c0.672-0.672,4.495-0.714,5.923-0.84C130.766,85.874,133.202,85.706,134.546,85.832z M130.177,93.351
		c-0.042,0.546-0.168,1.26-0.126,1.722c0,0.294,0.21,0.63,0.294,1.008c0.127,0.588-0.042,1.05,0.127,1.176
		c0.168,0.084,1.554,0.042,2.184,0c1.219-0.126,1.975-0.504,2.73-1.008c0.673-0.462,1.093-0.798,1.177-1.47
		c0.084-0.882-0.378-1.596-0.756-2.017c-0.715-0.924-0.673-0.714-2.311-0.84c-0.883-0.126-1.765-0.126-2.143,0
		c-0.21,0.042-0.798-0.084-1.009,0.126C130.219,92.175,130.219,93.015,130.177,93.351z"/>
	<path class="st1" d="M163.651,85.118c3.528,0,8.989-0.336,11.972,0c0.042,0,0.379-0.042,0.421,0s-0.042,0.294,0,0.294
		c0.462,0.168,1.512,0.084,1.722,0.294c0.252,0.252,0.336,1.932,0.462,2.604c0.084,0.672,0.042,1.596,0,2.311
		c-0.042,0.294,0.042,0.714,0,1.008c-0.21,0.756-1.302,0.63-2.772,0.588c-1.764-0.084-5.041-0.462-6.469-0.462
		c-0.378,0-2.143,0-2.311,0.168c-0.462,0.378-0.042,2.394,0,2.856c0,0.168,0.126,0.504,0.126,0.756c0,0.378-0.126,0.672,0,1.302
		c0-0.084,0.168,0.546,0.168,0.546c0.21,0.294,1.681,0.378,2.437,0.462c0.798,0.084,1.765,0.21,2.437,0.252
		c1.176,0.084,2.185-0.168,3.192,0.168c0.798,0.252,0.798,0.462,1.009,1.723c0.21,1.218,0.126,1.68,0,3.024
		c-0.042,0.546,0.084,1.134-0.126,1.302c-0.295,0.21-1.933,0-2.311,0c-1.933,0-3.697-0.378-5.335,0.168
		c-0.252,0.042-0.757,0.294-0.757,0.294c-0.294,0.378,0.21,3.193,0.294,4.159c0.042,0.294-0.168,0.504-0.126,0.714
		c0.042,0.588,0.253,1.05,0.295,1.47c0.084,0.966,0.21,2.016,0.294,3.445c0,0.21,0.21,3.402,0,3.612
		c-0.252,0.21-3.865,0.084-4.495,0c-0.126,0-0.336,0.042-0.42,0c-0.126-0.042-0.126-0.252-0.168-0.294
		c-0.294-0.084-1.849,0-2.017-0.126c-0.336-0.252-0.504-2.604-0.42-3.907c0.042-0.882,0.084-2.73,0-4.033
		c-0.042-1.008-0.294-1.89-0.294-2.604c0-0.504,0.168-1.386,0.126-1.596c0-0.63-0.252-1.05-0.252-1.428
		c-0.294-2.604-0.084-5.209-0.168-7.646c-0.084-2.646,0.21-5.083,0-7.646c-0.042-0.504-0.252-1.386-0.294-1.764
		c-0.042-0.462-0.169-0.672-0.127-1.008c0.085-0.504,0.463-0.966,1.135-1.008c0.084,0,0.21,0.042,0.294,0
		C161.635,85.034,162.475,85.118,163.651,85.118z"/>
	<path class="st1" d="M189.355,80.917c0,0,0.294,1.134,0.42,1.849c0.336,1.848,0.42,3.697,0.588,5.797
		c0.126,1.933,0.21,3.613,0.252,5.041c0.042,0.798,0,1.764,0,2.898c0.042,1.344,0.252,2.772,0.294,4.159
		c0.084,1.47,0.126,2.94,0.168,4.369c0.085,3.025-0.042,6.049,0.127,8.78c0.084,1.008,0.672,3.402,0.168,4.033
		c-0.295,0.336-2.017,0.21-3.067,0.462c-0.126,0-0.084,0.21-0.252,0.252c-0.588,0.21-1.428,0-2.479-0.126
		c-0.63-0.084-1.764-0.168-1.848-0.294c-0.168-0.126-0.168-1.47-0.168-2.311c0.084-8.485,0.21-17.685-0.126-25.667
		c-0.042-1.008-0.084-2.814-0.168-4.621c-0.084-1.596-0.547-3.613-0.126-4.201c0.252-0.378,0.672,0,1.302-0.294l0.126-0.294
		c0.336-0.042,0.546,0.168,0.882,0.168c0.463,0,0.589-0.126,1.009-0.168C186.709,80.749,188.768,80.371,189.355,80.917z"/>
	<path class="st1" d="M203.845,95.493c0.126,0.126,0.379,1.092,0.463,1.596c0.042,0.63-0.042,1.471,0,2.311
		c0.042,1.008,0.252,2.059,0.252,2.73c0.042,1.302-0.21,2.814-0.252,4.453c-0.084,1.47,0.042,3.066,0,4.621
		c-0.042,0.882-0.253,2.269-0.295,3.487c-0.042,0.252-0.168,0.504-0.168,0.84s0.168,0.546,0.168,0.882
		c-0.042,0.21-0.252,0.462-0.294,0.714c-0.21,1.218,0.168,0.84-1.008,1.008c-0.378,0.084-0.672,0.168-1.008,0.168
		c-0.631-0.042-1.219-0.294-1.891-0.294c-0.378,0-1.008,0.168-1.597,0.126c-0.336,0-1.512-0.042-1.596-0.126
		c-0.631-0.63,0.252-4.957,0.294-5.923c0.084-0.84-0.042-1.47,0-2.185c0.042-0.378,0.252-0.714,0.294-1.134
		c0.252-1.764,0.042-4.159,0.168-6.217c0.042-0.924,0.21-2.185,0.252-3.445c0.084-1.386,0-2.982,0.294-3.487
		c0.21-0.294,0.84-0.462,1.177-0.546C199.603,94.905,203.173,94.695,203.845,95.493z M202.711,83.815
		c0.546,0.336,0.504,0.126,0.84,0.84c0.126,0.21,0.042,0.168,0.168,0.294c0.463,0.504,0.715,1.975,0.589,2.899
		c-0.042,0.21-0.211,0.378-0.295,0.714c-0.084,0.21-0.084,0.546-0.168,0.714c-0.042,0.126-0.294,0.252-0.42,0.42
		c-0.168,0.252-0.168,0.504-0.294,0.588c-0.21,0.168-0.63,0.294-1.008,0.42c-0.546,0.252-0.883,0.63-1.597,0.462
		c-0.126-0.042-0.21-0.294-0.294-0.294c-0.546-0.126-0.84,0.042-1.302-0.168c-0.337-0.168-1.639-1.176-1.849-1.554
		c-0.336-0.588-0.63-1.555-0.588-2.185c0-0.504,0.294-0.84,0.588-1.428c0.42-0.924,0.378-1.134,1.302-1.722
		c0.547-0.42,0.673-0.336,1.723-0.462C201.282,83.227,201.829,83.269,202.711,83.815z"/>
	<path class="st1" d="M217.368,89.528c0.295,0.294,0.126,1.722,0.126,2.016c-0.042,0.63,0,1.092,0.715,0.714
		c0.084-0.042,0.21-0.21,0.294-0.294c0.084-0.042,0.168-0.042,0.294-0.126c0.588-0.336,0.714-0.63,1.134-0.882
		c0.337-0.168,1.093-0.21,1.471-0.546c0.126-0.126,0.294-0.168,0.42-0.294c0.21-0.21,0.42-0.042,1.008-0.168
		c0.337-0.042,1.135-0.504,1.597-0.546c1.387-0.21,3.486-0.126,4.453,0.126c0.21,0.042,0.42,0.252,0.588,0.294
		c0.588,0.126,1.176,0.042,1.47,0.126c0.421,0.168,0.925,0.63,1.303,0.882c1.092,0.798,1.47,1.092,2.269,2.311
		c0.672,0.966,1.176,2.016,1.596,3.318c0.084,0.252,0.21,0.63,0.295,0.882c0.294,0.756,0.378,1.554,0.42,2.562
		c0.084,1.302,0.168,2.226,0,3.612c0,0.21-0.126,0.42-0.126,0.462c0,0.126,0.126,0.294,0.126,0.294
		c-0.042,0.294-0.21,0.294-0.252,0.546c-0.084,0.42,0.126,0.21,0,0.714c-0.084,0.21-0.253,0.378-0.295,0.588
		c-0.126,0.462-0.126,1.05-0.294,1.47c-0.042,0.042-0.252-0.042-0.294,0.126c-0.126,0.504-0.546,1.092-0.882,1.597
		c-0.378,0.588-0.756,1.344-1.135,1.722c-0.336,0.336-0.84,0.546-1.302,0.882c-0.084,0.042-0.336,0.042-0.42,0.126
		s-0.084,0.378-0.168,0.42c-0.126,0.126-0.294,0.084-0.42,0.168c-0.042,0.042-0.084,0.252-0.168,0.294s-0.421,0.042-0.715,0.126
		c-1.974,0.756-4.536,1.176-7.646,0.882c-0.546-0.084-1.218-0.084-1.722-0.168c-0.21,0-0.504-0.252-0.714-0.294
		c-0.337-0.042-0.673,0.084-0.883,0c-0.21-0.042-0.84-0.462-1.302-0.714c-0.336-0.168-1.093-0.798-1.303-0.714
		c-0.42,0.168-0.672,2.688-0.714,3.738c0,0.588,0.168,1.008,0.168,1.302c-0.042,0.294-0.252,0.42-0.294,0.756
		c-0.084,0.252,0.168,0.966,0.126,1.134c-0.042,0.252-0.252,0.84-0.294,1.302c-0.042,0.966,0.084,2.058,0,3.024
		c-0.042,0.462-0.168,1.176-0.294,1.89c-0.168,1.428,0.084,2.143-1.009,2.437c-0.168,0.042-0.42-0.084-0.546,0
		c-0.042,0.042-0.126,0.294-0.168,0.294c-0.504,0.084-1.596,0.126-2.437,0.126c-0.84,0.042-2.017,0.126-2.311-0.126
		c-0.588-0.462-0.252-2.688-0.168-4.033c0.042-0.714-0.042-1.302,0-1.89c0.042-0.294,0.294-0.546,0.294-0.84
		c0-0.378-0.168-0.588-0.126-0.882c0.042-0.588,0.252-1.134,0.294-1.428c0.253-3.193,0.085-7.981,0.421-11.846
		c0.084-1.134-0.042-2.227,0-3.319c0.042-1.302,0.21-2.562,0.294-3.78c0.042-1.176-0.084-2.227,0-3.319
		c0.042-0.63,0.252-1.302,0.294-1.848c0-0.462-0.168-1.05-0.168-1.723c0-0.756,0-1.974,0.294-2.478
		c0.336-0.504,2.101-0.882,3.024-1.008C214.722,89.36,216.822,89.024,217.368,89.528z M222.409,96.459
		c-0.378,0.126-0.84,0.126-1.176,0.294c-0.756,0.378-1.471,1.008-2.143,1.596c-0.168,0.126-0.462,0.126-0.588,0.294
		c-0.168,0.126-0.294,0.378-0.42,0.546c-0.336,0.378-0.631,0.84-0.715,1.176c-0.21,0.714-0.084,1.092-0.168,1.722
		c-0.168,1.596-0.084,2.185,0.715,3.024c0.462,0.462,1.386,0.924,1.764,1.176c0.42,0.252,0.757,0.42,1.135,0.546
		c1.47,0.63,3.024,0.798,5.041,0.756c2.142-0.084,2.73-0.336,3.78-1.302c0.294-0.294,0.588-0.714,0.714-1.008
		c0-0.084,0.252-0.126,0.294-0.168s-0.042-0.21,0-0.294c0-0.042,0.252-0.084,0.294-0.126c0.085-0.21,0.042-0.714,0.127-1.008
		c0.126-0.42,0.252-0.672,0.294-1.008c0.084-1.05-0.21-2.311-0.421-2.899c-0.252-0.63-0.462-0.882-0.756-1.302
		c-0.546-0.84-1.218-1.387-1.849-1.891c-1.008-0.714-2.73-0.714-4.2-0.546c-0.252,0-0.504-0.084-0.882,0
		C222.998,96.082,222.787,96.333,222.409,96.459z"/>
	<path class="st1" d="M253.488,90.2c0.252,0.042,0.757,0.294,1.135,0.462c2.269,0.798,4.158,2.016,5.629,3.865
		c1.176,1.47,0.126,1.806-1.261,2.772c-0.84,0.546-1.428,1.218-2.311,1.134c-1.05-0.084-0.756-0.63-1.47-1.134
		c-0.168-0.126-0.882-0.336-1.303-0.588c-0.336-0.21-0.462-0.21-1.302-0.294c-1.092-0.126-1.387-0.042-2.437,0.588
		c-0.336,0.168-0.63,0.462-1.008,0.714c-0.799,0.504-1.471,1.722-1.891,2.898c-0.546,1.638-0.588,3.613,0.168,5.755
		c0.294,0.924,0.714,1.597,1.303,2.311c0.336,0.462,0.378,0.714,0.84,1.008c0.126,0.084,0.294,0.084,0.42,0.168
		c0.294,0.168,0.462,0.504,0.588,0.546c0.252,0.126,0.714-0.084,1.009,0c0.294,0.084,0.042,0.294,0.588,0.294
		c0.126,0,0.504,0.084,0.588,0c0.126-0.084-0.084-0.21,0.126-0.294c0.672-0.126,0.882,0.084,1.471-0.252
		c0.042-0.042,0.084-0.294,0.126-0.294c0.336-0.168,0.798-0.42,1.134-0.756c0.672-0.546,1.092-1.512,1.765-1.428
		c0.21,0.042,0.294,0.252,0.546,0.588c0.21,0.21,0.336,0.42,0.462,0.588c0.126,0.126,0.378,0.21,0.588,0.42
		c0.421,0.42,0.841,0.882,1.261,1.428c0.21,0.294,1.008,1.176,1.008,1.47c0.042,0.798-1.386,1.806-2.143,2.437
		c-0.798,0.672-1.596,1.218-2.73,1.722c-0.336,0.168-0.84,0.252-1.176,0.462c-0.378,0.168-0.546,0.462-0.84,0.546
		c-0.967,0.252-3.403,0.252-4.915,0.168c-1.261-0.084-1.555-0.462-2.479-0.882c-0.336-0.168-0.966-0.252-1.303-0.42
		c-0.168-0.126-0.336-0.378-0.546-0.588c-1.722-1.47-3.192-3.15-4.074-5.629c-0.336-1.008-0.673-2.016-0.841-3.444
		c-0.042-0.378,0.084-0.756,0-1.176c-0.042-0.252-0.294-0.504-0.294-0.714c0-0.462,0.252-1.008,0.294-1.596
		c0.126-1.344,0.042-2.143,0.294-3.319c0.042-0.21,0.253-0.336,0.295-0.588s-0.084-0.588,0-0.84c0.084-0.336,0.462-0.966,0.714-1.47
		c0,0,0.042-0.63,0.126-0.714c0.042-0.042,0.294,0.042,0.294,0c0.084-0.168,0.084-0.294,0.126-0.42
		c0.252-0.42,0.672-1.092,1.05-1.596c0.673-1.05,0.967-1.386,2.017-2.142c0.252-0.21,0.672-0.504,1.135-0.756
		c0.588-0.294,1.008-0.504,1.89-0.714c0.21-0.042,0.505,0.084,0.715,0c0.21-0.042,0.126-0.252,0.42-0.294
		c0.378-0.042,0.798,0.042,1.176,0C251.01,90.158,252.312,90.032,253.488,90.2z"/>
	<path class="st1" d="M267.725,81.043c0.462-0.042,2.772-0.168,3.066,0c0.21,0.126,0.252,1.092,0.42,1.89
		c0.336,1.89,0.504,4.159,0.588,5.923c0.042,1.26,0,2.604,0.126,4.159c0.042,0.546,0.294,1.26,0.294,2.017
		c0.042,1.722-0.504,2.395,1.009,1.596c0.546-0.294,0.756-0.462,1.428-0.714c0.336-0.126,0.588-0.252,1.008-0.42
		c0.169-0.084,0.379-0.252,0.463-0.294c0.252-0.084,0.588,0.084,0.84,0c0.168-0.042,0.168-0.252,0.462-0.294
		c1.093-0.168,2.437-0.126,3.318,0c0.21,0.042,0.463,0.21,0.715,0.294c0.336,0.084,0.588,0.042,0.882,0.126
		c0.126,0.042,0.252,0.21,0.42,0.294c0.462,0.21,1.093,0.63,1.597,1.176c0.042,0.042-0.084,0.21,0,0.294
		c0.042,0.042,0.21-0.084,0.252,0c0.084,0.042,0.084,0.21,0.168,0.252c0.168,0.21,0.84,0.924,1.008,1.176s0.252,0.756,0.42,1.134
		c0.421,0.924,0.757,2.059,1.009,3.319c0.126,0.672,0.21,1.176,0.294,1.89c0-0.042,0.252,0.084,0.168,0.168
		c-0.378,0.252,0.042,0.378,0.126,0.714c0.126,0.462,0.126,1.428,0.168,2.016c0.042,1.429,0.084,3.445,0,5.041
		c-0.042,0.21,0.042,0.504,0,0.714c-0.042,0.168-0.294,0.252-0.294,0.462c-0.042,0.252,0.126,0.588,0.126,0.84
		c0,0.294-0.084,0.546-0.126,0.882c-0.084,0.504-0.042,1.05-0.294,1.302c-0.462,0.462-1.597,0.378-2.898,0.42
		c-0.967,0-2.73,0.042-3.024-0.294c-0.294-0.336-0.042-1.848,0-2.436c0-0.126,0.168-0.168,0.126-0.294
		c0-0.042-0.168-0.168-0.126-0.294c0.126-1.008,0.42-2.058,0.42-3.024c0-0.42-0.126-0.882-0.126-1.176
		c0-0.882,0.168-2.437,0.126-3.024c-0.084-1.47-0.462-2.73-0.841-3.445c-0.252-0.504-1.134-1.68-1.89-1.89
		c-0.883-0.21-2.688,0.168-3.318,0.42c-1.093,0.462-2.101,1.218-2.899,2.185c-0.084,0.126-0.042,0.336-0.126,0.42
		s-0.546,0.546-0.588,0.714c-0.294,1.176,0,2.52,0,3.612c0,1.008,0.042,2.185,0,3.487c0,0.21-0.168,0.378-0.126,0.714
		c0,0.21,0.126,0.462,0.126,0.714c0,0.21-0.294,0.378-0.294,0.588c0,0.294,0.294,0.42,0.294,0.588c0,0.042-0.252,0.252-0.294,0.546
		c-0.084,0.672,0.042,2.017-0.294,2.311c-0.21,0.21-1.26,0.21-2.311,0.294c-0.798,0.084-1.723,0.21-2.437,0.168
		c-0.42-0.042-1.68-0.294-1.89-0.588c-0.295-0.42-0.043-1.933,0-3.024c0.084-1.302-0.043-2.562,0-3.907
		c0.042-1.134,0.252-2.311,0.294-3.487c0.21-4.579-0.126-9.662-0.126-14.703c0-3.15,0.042-6.091-0.295-8.821
		c-0.084-0.462-0.252-0.966-0.168-1.302c0.337-0.924,2.143-1.176,2.898-1.26C267.598,81.211,267.641,81.043,267.725,81.043z"/>
	<path class="st1" d="M305.484,87.554c0.126,0.042-0.042,0.21,0.168,0.294c0.546,0.126,1.344-0.042,2.016,0.126
		c0.211,0.042,0.547,0.336,0.841,0.42c0.672,0.252,1.26,0.42,1.89,0.714c2.185,1.134,3.739,3.066,4.915,5.377
		c0.378,0.756,0.715,1.722,1.009,2.73c0.336,1.134,0.504,1.974,0.714,3.444c0.042,0.126,0.126,0.168,0.168,0.294
		c0,0.168-0.168,0.294-0.168,0.294c0.042,0.336,0.294,0.378,0.294,0.588c0.042,0.294-0.126,0.378-0.126,0.714
		c-0.042,0.546,0.21,1.512,0.294,2.31c0.084,1.639-0.168,3.235-0.168,4.915c0,0.21-0.042,0.672,0,1.008
		c0.042,0.21,0.294,0.504,0.294,0.588c0,0.168-0.252,0.378-0.294,0.84c0-0.042,0.168,0.084,0.168,0.168
		c0,0.462-0.252,1.764-0.294,2.604c-0.042,0.462-0.042,1.218-0.168,2.016c-0.21,1.681-0.042,1.891-1.849,2.017
		c-1.134,0.084-2.227,0.042-3.486,0c-1.303-0.084-1.807,0-1.891-1.302c0-0.462,0.378-1.008,0.168-1.176
		c-0.378-0.294-1.386,0.42-1.47,0.462c-1.765,0.798-4.411,1.344-7.352,1.134c-0.378-0.042-0.924-0.084-1.302-0.126
		c-1.555-0.168-2.646-0.63-4.033-1.176c-0.882-0.336-0.882-0.504-1.597-1.134c-0.168-0.168-0.378-0.168-0.546-0.294
		c-0.378-0.294-0.63-0.84-1.008-1.302c-0.504-0.588-0.672-0.63-1.051-1.722c-0.504-1.596-0.462-3.991,0-5.797
		c0.211-0.672,0.757-1.302,1.303-2.017c0.168-0.168,0.21-0.462,0.294-0.588c0.252-0.252,0.714-0.42,1.008-0.714
		c0.589-0.504,0.757-0.756,1.471-1.134c0.924-0.546,2.395-1.05,3.612-1.596c0.715-0.336,2.688-0.63,3.865-0.714
		c1.89-0.168,2.814,0.042,4.494,0.294c0.295,0.042,1.555,0.294,1.723,0.126c0.336-0.336-0.546-2.227-0.714-2.604
		c-0.546-1.092-1.093-1.722-2.185-2.311c-0.252-0.126-0.714-0.42-0.714-0.42c-0.841-0.21-3.276-0.168-4.159,0
		c-0.63,0.084-1.68,0.672-2.185,1.008c-0.294,0.21-0.882,0.798-1.302,1.134c-0.126,0.126,0.084,0.252-0.126,0.294
		c-0.252,0.084-0.967,0.042-1.303-0.126c-0.168-0.084-0.336-0.42-0.588-0.588c-0.168-0.084-0.294-0.042-0.42-0.126
		s-0.21-0.252-0.294-0.294c-0.21-0.126-0.546-0.168-0.714-0.294c-0.126-0.084-0.168-0.21-0.294-0.294
		c-0.421-0.252-0.799-0.546-1.303-0.882c-0.084-0.042-0.714-0.672-0.714-0.84c-0.042-0.42,0.672-1.134,1.008-1.596
		c0.126-0.21,0.21-0.504,0.294-0.588c0.588-0.63,1.429-1.134,1.849-1.428c0.294-0.21,0.588-0.462,1.008-0.714
		c0.378-0.21,0.673-0.42,1.009-0.588c0.42-0.21,0.882-0.252,1.302-0.42s0.756-0.504,1.009-0.588
		c0.714-0.168,1.848-0.126,2.478-0.126c0.169-0.042,0.211-0.168,0.295-0.168S304.938,87.176,305.484,87.554z M301.619,106.163
		c-0.21,0.042-0.504,0.336-0.756,0.42c-0.798,0.378-1.303,0.546-1.723,1.176c-0.126,0.21-0.168,0.546-0.294,0.84
		c-0.126,0.42-0.294,0.546-0.294,0.882c0.042,0.63,0.462,1.218,1.008,1.722c0.505,0.42,1.261,0.882,1.891,1.008
		c0.924,0.168,2.269,0.168,3.318,0c0.294-0.042,0.505-0.294,0.883-0.42c0.336-0.126,0.798-0.042,1.134-0.126
		c0.378-0.168,0.798-0.546,1.177-0.756c0.63-0.336,1.26-0.672,1.722-1.008s1.093-1.344,0.883-2.016
		c-0.127-0.336-0.505-0.336-1.177-0.714c-0.462-0.294-0.882-0.63-1.134-0.714c-0.168-0.084-0.547-0.084-0.883-0.168
		c-0.672-0.126-1.218-0.168-1.722-0.252c-0.378-0.084-0.589-0.294-0.883-0.294c-0.714-0.084-1.428,0.084-1.596,0.126
		c-0.042,0-0.126,0.252-0.294,0.294C302.459,106.205,301.997,106.079,301.619,106.163z"/>
	<path class="st1" d="M339.001,92.133c0.126,0.294-0.168,1.47-0.294,2.184c-0.084,0.756-0.336,1.429-0.42,2.017
		c-0.042,0.252,0.126,0.672,0,1.302c-0.042,0.294-0.084,0.336-0.126,0.546l-0.168,0.588c-0.547,0.378-4.159-0.126-4.915,0
		c-0.21,0.042-0.42,0.21-0.715,0.294c-0.588,0.21-1.26,0.378-1.89,0.714c-1.135,0.63-1.933,1.176-1.849,3.025
		c0,0.126,0.126,0.252,0.126,0.462c0,0.126-0.168,0.21-0.126,0.42c0.126,1.807,0.546,4.033,0.714,6.049
		c0.084,0.924,0,2.772,0.294,3.781c0,0.084,0.127,0.126,0.127,0.126c0.042,0.21-0.295,0.168-0.295,0.588
		c0,0.588,0.421,2.94-0.126,3.445c-0.378,0.378-2.142,0.336-3.192,0.42c-0.63,0.084-2.479,0.378-3.024-0.126
		c-0.126-0.126-0.042-0.546-0.126-1.008c-0.042-0.252-0.294-0.588-0.294-0.714c0-0.672,0.294-0.714,0.294-1.008
		c0-0.21-0.252-0.504-0.294-0.714c-0.084-0.588-0.126-1.134-0.168-1.764c0-0.21,0.168-0.462,0.168-0.714
		c-0.042-0.504-0.252-1.008-0.294-1.597c-0.042-0.546,0.042-1.092,0-1.722c-0.084-0.882-0.378-1.764-0.42-2.73
		c-0.042-0.336,0.168-0.588,0.126-0.882c-0.084-0.798-0.378-1.428-0.42-1.848c-0.127-1.218-0.127-2.353-0.295-3.487
		c-0.042-0.336,0.084-0.672,0-1.008c-0.042-0.084-0.252-0.126-0.294-0.294c-0.042-0.126,0.042-0.294,0-0.42
		c-0.168-1.26-0.252-2.521-0.42-3.612c-0.042-0.252-0.588-1.302-0.294-1.891c0.21-0.378,1.429-0.42,2.017-0.546
		c0.378-0.126,0.714-0.21,1.008-0.294s0.42-0.084,0.588-0.168c0.294-0.126,2.143-0.294,2.604,0c0.463,0.336,0.336,2.059,0.841,2.311
		c0.252,0.126,0.672-0.126,1.176-0.42c0.126-0.084,0.252-0.336,0.42-0.42c0.21-0.126,0.378-0.042,0.588-0.168
		c0.169-0.084,0.253-0.336,0.421-0.42c0.21-0.126,0.378-0.042,0.588-0.168c0.336-0.168,0.588-0.462,0.882-0.546
		c0.336-0.126,0.883-0.084,1.261-0.168c0.462-0.084,0.798-0.084,1.176-0.126C334.884,91.292,338.623,91.25,339.001,92.133z"/>
	<path class="st1" d="M354.413,82.177c0.294,0.21,0.504,0.966,0.546,1.597c0.126,1.05-0.126,2.73,0,4.033
		c0.084,0.63,0,1.008,0.168,1.176c0.504,0.462,2.311,0.168,3.15,0.126c1.219-0.042,3.108-0.252,3.613,0
		c-0.043-0.042,0.252,0.462,0.294,0.588c0-0.042-0.168,0.168-0.126,0.294c0,0.042,0.294,0.126,0.294,0.126
		c0.168,1.008,0,2.143-0.168,3.193s-0.084,1.428-1.135,1.554c-1.05,0.168-2.94-0.21-3.906,0.168
		c-0.168,0.042-1.597,0.126-1.723,0.294c-0.252,0.252-0.294,3.109-0.294,3.739c0,1.386,0.168,3.907,0.294,5.503
		c0.21,2.814,0.084,7.267,0,10.67c-0.042,0.588-0.084,1.05-0.168,1.596c-0.084,0.714-0.126,1.302-0.294,1.428
		c-0.126,0.126-1.092-0.042-1.429,0c-0.504,0.042-0.924,0.168-1.302,0.168c-0.672,0-2.562-0.042-2.73-0.168
		c0,0-0.42-1.218-0.462-1.428c-0.042-0.63,0.126-1.344,0.168-1.89c0.084-2.059-0.084-4.285,0-6.511c0-0.672,0.168-1.302,0.126-2.017
		c0-0.168-0.252-1.05-0.294-1.554c-0.042-0.798,0.168-1.806,0.168-2.898c0-0.42,0-0.798,0-1.176c0-0.84,0-1.47-0.168-2.31
		c0-0.126-0.168-0.21-0.126-0.42c0.042-0.378,0-1.89-0.126-2.016c-0.505-0.42-3.571,0-4.495,0.126c-0.126,0.042-0.462-0.042-0.588,0
		c-0.126,0.084,0.084,0.252-0.126,0.294c-0.883,0.21-1.135,0-1.429-0.714c-0.084-0.168,0.042-0.126,0-0.42
		c-0.042-0.084-0.294-0.252-0.294-0.294c-0.084-0.462,0-1.344,0-2.017c-0.042-0.882-0.294-1.806-0.168-2.184
		c0.126-0.252,0.924-0.756,1.471-0.84c1.218-0.294,2.604,0.042,4.032-0.168c0.42-0.042,1.387-0.252,1.429-0.294
		s0.168-2.185,0.168-2.604c-0.042-0.462-0.252-1.05-0.294-1.554c-0.127-1.218-0.169-2.73,0.42-3.193
		C349.204,81.967,353.782,81.757,354.413,82.177z"/>
</g>
</svg>
